<svg width="626.877" height="490.132" viewBox="41.246 15.8422 470.158 367.599" xmlns="http://www.w3.org/2000/svg" xmlns:xlink="http://www.w3.org/1999/xlink" xml:space="preserve" overflow="hidden"><g transform="matrix(1 0 0 -1 0 841)"><g stroke="#000000" stroke-linecap="round" stroke-linejoin="round" stroke-miterlimit="3" fill="none" fill-rule="evenodd" font-weight="400" baseline-shift="0"><g transform="matrix(0.6 0 0 0.6 0 841.65)"><g font-family="CalibriUnicode" font-size="13" transform="scale(0.911963 -0.907119)"><rect x="443" y="541" width="198" height="117" stroke="none" fill="#D0D0D0"/><rect x="440" y="538" width="197" height="116" stroke="none" stroke-width="2" fill="#FFE4E1"/><rect x="440" y="538" width="197" height="117" stroke="#9A8484" stroke-width="2"/><text stroke="none" fill="#000000" transform="translate(502 544)"><tspan x="0" y="12" dx="0">«</tspan><tspan x="7" y="12" dx="0">O</tspan><tspan x="16" y="12" dx="0">b</tspan><tspan x="23" y="12" dx="0">j</tspan><tspan x="26" y="12" dx="0">e</tspan><tspan x="33" y="12" dx="0">c</tspan><tspan x="38" y="12" dx="0 0">tt</tspan><tspan x="47" y="12" dx="0">y</tspan><tspan x="53" y="12" dx="0">p</tspan><tspan x="59" y="12" dx="0">e</tspan><tspan x="66" y="12" dx="0">»</tspan></text><text stroke="none" fill="#000000" font-style="italic" font-weight="700" transform="translate(519 559)"><tspan x="0" y="12" dx="0">L</tspan><tspan x="6" y="12" dx="0">o</tspan><tspan x="13" y="12" dx="0">c</tspan><tspan x="18" y="12" dx="0">a</tspan><tspan x="25" y="12" dx="0 0">ti</tspan><tspan x="33" y="12" dx="0">e</tspan></text><path d="M440 579 637 579" stroke="#9A8484" stroke-width="2"/><text stroke="none" fill="#000000" transform="translate(453 587)"><tspan x="0" y="12" dx="0">«</tspan><tspan x="7" y="12" dx="0">A</tspan><tspan x="14" y="12" dx="0 0">tt</tspan><tspan x="23" y="12" dx="0">r</tspan><tspan x="27" y="12" dx="0">i</tspan><tspan x="30" y="12" dx="0">b</tspan><tspan x="37" y="12" dx="0">u</tspan><tspan x="43" y="12" dx="0">u</tspan><tspan x="50" y="12" dx="0">t</tspan><tspan x="54" y="12" dx="0">s</tspan><tspan x="60" y="12" dx="0">o</tspan><tspan x="67" y="12" dx="0">o</tspan><tspan x="73" y="12" dx="0">r</tspan><tspan x="78" y="12" dx="0">t</tspan><tspan x="82" y="12" dx="0">»</tspan></text><text stroke="none" fill="#66413F" transform="translate(445 602)"><tspan x="0" y="12" dx="0">+ </tspan></text><text stroke="none" fill="#66413F" transform="translate(466 602)"><tspan x="0" y="12" dx="0">i</tspan><tspan x="3" y="12" dx="0">d</tspan><tspan x="10" y="12" dx="0">e</tspan><tspan x="17" y="12" dx="0">n</tspan><tspan x="23" y="12" dx="0 0">ti</tspan><tspan x="31" y="12" dx="0 0">fi</tspan><tspan x="38" y="12" dx="0">c</tspan><tspan x="44" y="12" dx="0">a</tspan><tspan x="51" y="12" dx="0 0">ti</tspan><tspan x="58" y="12" dx="0">e</tspan><tspan x="65" y="12" dx="0">:</tspan><tspan x="68" y="12" dx="0"> </tspan><tspan x="72" y="12" dx="0">N</tspan><tspan x="80" y="12" dx="0">E</tspan><tspan x="87" y="12" dx="0">N</tspan><tspan x="95" y="12" dx="0">3</tspan><tspan x="102" y="12" dx="0">6</tspan><tspan x="108" y="12" dx="0">1</tspan><tspan x="115" y="12" dx="0">0</tspan><tspan x="122" y="12" dx="0">I</tspan><tspan x="125" y="12" dx="0">D</tspan></text><text stroke="none" fill="#66413F" transform="translate(445 617)"><tspan x="0" y="12" dx="0">+ </tspan></text><text stroke="none" fill="#66413F" transform="translate(466 617)"><tspan x="0" y="12" dx="0">noemer: CharacterString [0..1]</tspan></text><rect x="116" y="550" width="207" height="141" stroke="none" fill="#D0D0D0"/><rect x="113" y="547" width="206" height="140" stroke="none" stroke-width="2" fill="#CCFFCC"/><rect x="113" y="547" width="206" height="141" stroke="#9A8484" stroke-width="2"/><text stroke="none" fill="#000000" transform="translate(180 553)"><tspan x="0" y="12" dx="0">«</tspan><tspan x="7" y="12" dx="0">O</tspan><tspan x="16" y="12" dx="0">b</tspan><tspan x="23" y="12" dx="0">j</tspan><tspan x="26" y="12" dx="0">e</tspan><tspan x="33" y="12" dx="0">c</tspan><tspan x="38" y="12" dx="0 0">tt</tspan><tspan x="47" y="12" dx="0">y</tspan><tspan x="53" y="12" dx="0">p</tspan><tspan x="59" y="12" dx="0">e</tspan><tspan x="66" y="12" dx="0">»</tspan></text><text stroke="none" fill="#000000" font-weight="700" transform="translate(164 568)"><tspan x="0" y="12" dx="0">Gebiedsaanwijzing</tspan></text><path d="M113 588 319 588" stroke="#9A8484" stroke-width="2"/><text stroke="none" fill="#000000" transform="translate(126 596)"><tspan x="0" y="12" dx="0">«</tspan><tspan x="7" y="12" dx="0">A</tspan><tspan x="14" y="12" dx="0 0">tt</tspan><tspan x="23" y="12" dx="0">r</tspan><tspan x="27" y="12" dx="0">i</tspan><tspan x="30" y="12" dx="0">b</tspan><tspan x="37" y="12" dx="0">u</tspan><tspan x="43" y="12" dx="0">u</tspan><tspan x="50" y="12" dx="0">t</tspan><tspan x="54" y="12" dx="0">s</tspan><tspan x="60" y="12" dx="0">o</tspan><tspan x="67" y="12" dx="0">o</tspan><tspan x="73" y="12" dx="0">r</tspan><tspan x="78" y="12" dx="0">t</tspan><tspan x="82" y="12" dx="0">»</tspan></text><text stroke="none" fill="#66413F" transform="translate(118 611)"><tspan x="0" y="12" dx="0">+ </tspan></text><text stroke="none" fill="#66413F" transform="translate(139 611)"><tspan x="0" y="12" dx="0">i</tspan><tspan x="3" y="12" dx="0">d</tspan><tspan x="10" y="12" dx="0">e</tspan><tspan x="17" y="12" dx="0">n</tspan><tspan x="23" y="12" dx="0 0">ti</tspan><tspan x="31" y="12" dx="0 0">fi</tspan><tspan x="38" y="12" dx="0">c</tspan><tspan x="44" y="12" dx="0">a</tspan><tspan x="51" y="12" dx="0 0">ti</tspan><tspan x="58" y="12" dx="0">e</tspan><tspan x="65" y="12" dx="0">:</tspan><tspan x="68" y="12" dx="0"> </tspan><tspan x="72" y="12" dx="0">N</tspan><tspan x="80" y="12" dx="0">E</tspan><tspan x="87" y="12" dx="0">N</tspan><tspan x="95" y="12" dx="0">3</tspan><tspan x="102" y="12" dx="0">6</tspan><tspan x="108" y="12" dx="0">1</tspan><tspan x="115" y="12" dx="0">0</tspan><tspan x="122" y="12" dx="0">I</tspan><tspan x="125" y="12" dx="0">D</tspan><tspan x="133" y="12" dx="0"> </tspan><tspan x="137" y="12" dx="0">{</tspan><tspan x="141" y="12" dx="0">i</tspan><tspan x="144" y="12" dx="0">d</tspan><tspan x="151" y="12" dx="0">}</tspan></text><text stroke="none" fill="#66413F" transform="translate(118 626)"><tspan x="0" y="12" dx="0">+ </tspan></text><text stroke="none" fill="#66413F" transform="translate(139 626)"><tspan x="0" y="12" dx="0">type: TypeGebiedsaanwijzing</tspan></text><text stroke="none" fill="#66413F" transform="translate(118 641)"><tspan x="0" y="12" dx="0">+ </tspan></text><text stroke="none" fill="#66413F" transform="translate(139 641)"><tspan x="0" y="12" dx="0">naam: CharacterString</tspan></text><text stroke="none" fill="#66413F" transform="translate(118 656)"><tspan x="0" y="12" dx="0">+ </tspan></text><text stroke="none" fill="#66413F" transform="translate(139 656)"><tspan x="0" y="12" dx="0">groep: Gebiedsaanwijzinggroep</tspan></text><rect x="434" y="294" width="188" height="113" stroke="none" fill="#D0D0D0"/><rect x="431" y="291" width="187" height="112" stroke="none" stroke-width="2" fill="#CCFFFF"/><rect x="431" y="291" width="187" height="113" stroke="#9A8484" stroke-width="2"/><text stroke="none" fill="#000000" transform="translate(488 297)"><tspan x="0" y="12" dx="0">«</tspan><tspan x="7" y="12" dx="0">O</tspan><tspan x="16" y="12" dx="0">b</tspan><tspan x="23" y="12" dx="0">j</tspan><tspan x="26" y="12" dx="0">e</tspan><tspan x="33" y="12" dx="0">c</tspan><tspan x="38" y="12" dx="0 0">tt</tspan><tspan x="47" y="12" dx="0">y</tspan><tspan x="53" y="12" dx="0">p</tspan><tspan x="59" y="12" dx="0">e</tspan><tspan x="66" y="12" dx="0">»</tspan></text><text stroke="none" fill="#000000" font-weight="700" transform="translate(498 312)"><tspan x="0" y="12" dx="0">Hoofdlijn</tspan></text><path d="M431 332 618 332" stroke="#9A8484" stroke-width="2"/><text stroke="none" fill="#000000" transform="translate(444 340)"><tspan x="0" y="12" dx="0">«</tspan><tspan x="7" y="12" dx="0">A</tspan><tspan x="14" y="12" dx="0 0">tt</tspan><tspan x="23" y="12" dx="0">r</tspan><tspan x="27" y="12" dx="0">i</tspan><tspan x="30" y="12" dx="0">b</tspan><tspan x="37" y="12" dx="0">u</tspan><tspan x="43" y="12" dx="0">u</tspan><tspan x="50" y="12" dx="0">t</tspan><tspan x="54" y="12" dx="0">s</tspan><tspan x="60" y="12" dx="0">o</tspan><tspan x="67" y="12" dx="0">o</tspan><tspan x="73" y="12" dx="0">r</tspan><tspan x="78" y="12" dx="0">t</tspan><tspan x="82" y="12" dx="0">»</tspan></text><text stroke="none" fill="#66413F" transform="translate(436 355)"><tspan x="0" y="12" dx="0">+ </tspan></text><text stroke="none" fill="#66413F" transform="translate(457 355)"><tspan x="0" y="12" dx="0">i</tspan><tspan x="3" y="12" dx="0">d</tspan><tspan x="10" y="12" dx="0">e</tspan><tspan x="17" y="12" dx="0">n</tspan><tspan x="23" y="12" dx="0 0">ti</tspan><tspan x="31" y="12" dx="0 0">fi</tspan><tspan x="38" y="12" dx="0">c</tspan><tspan x="44" y="12" dx="0">a</tspan><tspan x="51" y="12" dx="0 0">ti</tspan><tspan x="58" y="12" dx="0">e</tspan><tspan x="65" y="12" dx="0">:</tspan><tspan x="68" y="12" dx="0"> </tspan><tspan x="72" y="12" dx="0">N</tspan><tspan x="80" y="12" dx="0">E</tspan><tspan x="87" y="12" dx="0">N</tspan><tspan x="95" y="12" dx="0">3</tspan><tspan x="102" y="12" dx="0">6</tspan><tspan x="108" y="12" dx="0">1</tspan><tspan x="115" y="12" dx="0">0</tspan><tspan x="122" y="12" dx="0">I</tspan><tspan x="125" y="12" dx="0">D</tspan><tspan x="133" y="12" dx="0"> </tspan><tspan x="137" y="12" dx="0">{</tspan><tspan x="141" y="12" dx="0">i</tspan><tspan x="144" y="12" dx="0">d</tspan><tspan x="151" y="12" dx="0">}</tspan></text><text stroke="none" fill="#66413F" transform="translate(436 370)"><tspan x="0" y="12" dx="0">+ </tspan></text><text stroke="none" fill="#66413F" transform="translate(457 370)"><tspan x="0" y="12" dx="0">soort: CharacterString</tspan></text><text stroke="none" fill="#66413F" transform="translate(436 385)"><tspan x="0" y="12" dx="0">+ </tspan></text><text stroke="none" fill="#66413F" transform="translate(457 385)"><tspan x="0" y="12" dx="0">naam: CharacterString</tspan></text><rect x="93" y="48" width="188" height="102" stroke="none" fill="#D0D0D0"/><rect x="90" y="45" width="187" height="101" stroke="none" fill="#99CCFF"/><rect x="90" y="45" width="187" height="102" stroke="#9A8484"/><text stroke="none" fill="#000000" transform="translate(147 51)"><tspan x="0" y="12" dx="0">«</tspan><tspan x="7" y="12" dx="0">O</tspan><tspan x="16" y="12" dx="0">b</tspan><tspan x="23" y="12" dx="0">j</tspan><tspan x="26" y="12" dx="0">e</tspan><tspan x="33" y="12" dx="0">c</tspan><tspan x="38" y="12" dx="0 0">tt</tspan><tspan x="47" y="12" dx="0">y</tspan><tspan x="53" y="12" dx="0">p</tspan><tspan x="59" y="12" dx="0">e</tspan><tspan x="66" y="12" dx="0">»</tspan></text><text stroke="none" fill="#000000" font-weight="700" transform="translate(165 66)"><tspan x="0" y="12" dx="0">Divisie</tspan></text><path d="M90 86 277 86" stroke="#9A8484"/><text stroke="none" fill="#000000" transform="translate(103 94)"><tspan x="0" y="12" dx="0">«</tspan><tspan x="7" y="12" dx="0">A</tspan><tspan x="14" y="12" dx="0 0">tt</tspan><tspan x="23" y="12" dx="0">r</tspan><tspan x="27" y="12" dx="0">i</tspan><tspan x="30" y="12" dx="0">b</tspan><tspan x="37" y="12" dx="0">u</tspan><tspan x="43" y="12" dx="0">u</tspan><tspan x="50" y="12" dx="0">t</tspan><tspan x="54" y="12" dx="0">s</tspan><tspan x="60" y="12" dx="0">o</tspan><tspan x="67" y="12" dx="0">o</tspan><tspan x="73" y="12" dx="0">r</tspan><tspan x="78" y="12" dx="0">t</tspan><tspan x="82" y="12" dx="0">»</tspan></text><text stroke="none" fill="#66413F" transform="translate(95 109)"><tspan x="0" y="12" dx="0">+ </tspan></text><text stroke="none" fill="#66413F" transform="translate(116 109)"><tspan x="0" y="12" dx="0">i</tspan><tspan x="3" y="12" dx="0">d</tspan><tspan x="10" y="12" dx="0">e</tspan><tspan x="17" y="12" dx="0">n</tspan><tspan x="23" y="12" dx="0 0">ti</tspan><tspan x="31" y="12" dx="0 0">fi</tspan><tspan x="38" y="12" dx="0">c</tspan><tspan x="44" y="12" dx="0">a</tspan><tspan x="51" y="12" dx="0 0">ti</tspan><tspan x="58" y="12" dx="0">e</tspan><tspan x="65" y="12" dx="0">:</tspan><tspan x="68" y="12" dx="0"> </tspan><tspan x="72" y="12" dx="0">N</tspan><tspan x="80" y="12" dx="0">E</tspan><tspan x="87" y="12" dx="0">N</tspan><tspan x="95" y="12" dx="0">3</tspan><tspan x="102" y="12" dx="0">6</tspan><tspan x="108" y="12" dx="0">1</tspan><tspan x="115" y="12" dx="0">0</tspan><tspan x="122" y="12" dx="0">I</tspan><tspan x="125" y="12" dx="0">D</tspan><tspan x="133" y="12" dx="0"> </tspan><tspan x="137" y="12" dx="0">{</tspan><tspan x="141" y="12" dx="0">i</tspan><tspan x="144" y="12" dx="0">d</tspan><tspan x="151" y="12" dx="0">}</tspan></text><rect x="755" y="560" width="165" height="90" stroke="none" fill="#D0D0D0"/><rect x="752" y="557" width="164" height="89" stroke="none" fill="#FFFFFF"/><rect x="752" y="557" width="164" height="90" stroke="#9A8484"/><text stroke="none" fill="#000000" transform="translate(798 563)"><tspan x="0" y="12" dx="0">«</tspan><tspan x="7" y="12" dx="0">O</tspan><tspan x="16" y="12" dx="0">b</tspan><tspan x="23" y="12" dx="0">j</tspan><tspan x="26" y="12" dx="0">e</tspan><tspan x="33" y="12" dx="0">c</tspan><tspan x="38" y="12" dx="0 0">tt</tspan><tspan x="47" y="12" dx="0">y</tspan><tspan x="53" y="12" dx="0">p</tspan><tspan x="59" y="12" dx="0">e</tspan><tspan x="66" y="12" dx="0">»</tspan></text><text stroke="none" fill="#000000" font-weight="700" transform="translate(788 578)"><tspan x="0" y="12" dx="0">Regelingsgebied</tspan></text><path d="M752 598 916 598" stroke="#9A8484"/><text stroke="none" fill="#000000" transform="translate(765 606)"><tspan x="0" y="12" dx="0">«</tspan><tspan x="7" y="12" dx="0">A</tspan><tspan x="14" y="12" dx="0 0">tt</tspan><tspan x="23" y="12" dx="0">r</tspan><tspan x="27" y="12" dx="0">i</tspan><tspan x="30" y="12" dx="0">b</tspan><tspan x="37" y="12" dx="0">u</tspan><tspan x="43" y="12" dx="0">u</tspan><tspan x="50" y="12" dx="0">t</tspan><tspan x="54" y="12" dx="0">s</tspan><tspan x="60" y="12" dx="0">o</tspan><tspan x="67" y="12" dx="0">o</tspan><tspan x="73" y="12" dx="0">r</tspan><tspan x="78" y="12" dx="0">t</tspan><tspan x="82" y="12" dx="0">»</tspan></text><text stroke="none" fill="#66413F" transform="translate(757 621)"><tspan x="0" y="12" dx="0">+ </tspan></text><text stroke="none" fill="#66413F" transform="translate(778 621)"><tspan x="0" y="12" dx="0">i</tspan><tspan x="3" y="12" dx="0">d</tspan><tspan x="10" y="12" dx="0">e</tspan><tspan x="17" y="12" dx="0">n</tspan><tspan x="23" y="12" dx="0 0">ti</tspan><tspan x="31" y="12" dx="0 0">fi</tspan><tspan x="38" y="12" dx="0">c</tspan><tspan x="44" y="12" dx="0">a</tspan><tspan x="51" y="12" dx="0 0">ti</tspan><tspan x="58" y="12" dx="0">e</tspan><tspan x="65" y="12" dx="0">:</tspan><tspan x="68" y="12" dx="0"> </tspan><tspan x="72" y="12" dx="0">N</tspan><tspan x="80" y="12" dx="0">E</tspan><tspan x="87" y="12" dx="0">N</tspan><tspan x="95" y="12" dx="0">3</tspan><tspan x="102" y="12" dx="0">6</tspan><tspan x="108" y="12" dx="0">1</tspan><tspan x="115" y="12" dx="0">0</tspan><tspan x="122" y="12" dx="0">I</tspan><tspan x="125" y="12" dx="0">D</tspan></text><rect x="134" y="294" width="189" height="113" stroke="none" fill="#D0D0D0"/><rect x="131" y="291" width="188" height="112" stroke="none" stroke-width="2" fill="#CCFFFF"/><rect x="131" y="291" width="188" height="113" stroke="#9A8484" stroke-width="2"/><text stroke="none" fill="#000000" transform="translate(189 297)"><tspan x="0" y="12" dx="0">«</tspan><tspan x="7" y="12" dx="0">O</tspan><tspan x="16" y="12" dx="0">b</tspan><tspan x="23" y="12" dx="0">j</tspan><tspan x="26" y="12" dx="0">e</tspan><tspan x="33" y="12" dx="0">c</tspan><tspan x="38" y="12" dx="0 0">tt</tspan><tspan x="47" y="12" dx="0">y</tspan><tspan x="53" y="12" dx="0">p</tspan><tspan x="59" y="12" dx="0">e</tspan><tspan x="66" y="12" dx="0">»</tspan></text><text stroke="none" fill="#000000" font-weight="700" transform="translate(198 312)"><tspan x="0" y="12" dx="0">Tekstdeel</tspan></text><path d="M131 332 319 332" stroke="#9A8484" stroke-width="2"/><text stroke="none" fill="#000000" transform="translate(144 340)"><tspan x="0" y="12" dx="0">«</tspan><tspan x="7" y="12" dx="0">A</tspan><tspan x="14" y="12" dx="0 0">tt</tspan><tspan x="23" y="12" dx="0">r</tspan><tspan x="27" y="12" dx="0">i</tspan><tspan x="30" y="12" dx="0">b</tspan><tspan x="37" y="12" dx="0">u</tspan><tspan x="43" y="12" dx="0">u</tspan><tspan x="50" y="12" dx="0">t</tspan><tspan x="54" y="12" dx="0">s</tspan><tspan x="60" y="12" dx="0">o</tspan><tspan x="67" y="12" dx="0">o</tspan><tspan x="73" y="12" dx="0">r</tspan><tspan x="78" y="12" dx="0">t</tspan><tspan x="82" y="12" dx="0">»</tspan></text><text stroke="none" fill="#66413F" transform="translate(136 355)"><tspan x="0" y="12" dx="0">+ </tspan></text><text stroke="none" fill="#66413F" transform="translate(157 355)"><tspan x="0" y="12" dx="0">i</tspan><tspan x="3" y="12" dx="0">d</tspan><tspan x="10" y="12" dx="0">e</tspan><tspan x="17" y="12" dx="0">n</tspan><tspan x="23" y="12" dx="0 0">ti</tspan><tspan x="31" y="12" dx="0 0">fi</tspan><tspan x="38" y="12" dx="0">c</tspan><tspan x="44" y="12" dx="0">a</tspan><tspan x="51" y="12" dx="0 0">ti</tspan><tspan x="58" y="12" dx="0">e</tspan><tspan x="65" y="12" dx="0">:</tspan><tspan x="68" y="12" dx="0"> </tspan><tspan x="72" y="12" dx="0">N</tspan><tspan x="80" y="12" dx="0">E</tspan><tspan x="87" y="12" dx="0">N</tspan><tspan x="95" y="12" dx="0">3</tspan><tspan x="102" y="12" dx="0">6</tspan><tspan x="108" y="12" dx="0">1</tspan><tspan x="115" y="12" dx="0">0</tspan><tspan x="122" y="12" dx="0">I</tspan><tspan x="125" y="12" dx="0">D</tspan><tspan x="133" y="12" dx="0"> </tspan><tspan x="137" y="12" dx="0">{</tspan><tspan x="141" y="12" dx="0">i</tspan><tspan x="144" y="12" dx="0">d</tspan><tspan x="151" y="12" dx="0">}</tspan></text><text stroke="none" fill="#66413F" transform="translate(136 370)"><tspan x="0" y="12" dx="0">+ </tspan></text><text stroke="none" fill="#66413F" transform="translate(157 370)"><tspan x="0" y="12" dx="0">i</tspan><tspan x="3" y="12" dx="0">d</tspan><tspan x="10" y="12" dx="0">e</tspan><tspan x="17" y="12" dx="0">a</tspan><tspan x="23" y="12" dx="0">l</tspan><tspan x="27" y="12" dx="0">i</tspan><tspan x="30" y="12" dx="0">s</tspan><tspan x="36" y="12" dx="0">a</tspan><tspan x="43" y="12" dx="0 0">ti</tspan><tspan x="50" y="12" dx="0">e</tspan><tspan x="57" y="12" dx="0">:</tspan><tspan x="60" y="12" dx="0"> </tspan><tspan x="63" y="12" dx="0">I</tspan><tspan x="67" y="12" dx="0">d</tspan><tspan x="73" y="12" dx="0">e</tspan><tspan x="80" y="12" dx="0">a</tspan><tspan x="87" y="12" dx="0">l</tspan><tspan x="90" y="12" dx="0">i</tspan><tspan x="93" y="12" dx="0">s</tspan><tspan x="99" y="12" dx="0">a</tspan><tspan x="106" y="12" dx="0 0">ti</tspan><tspan x="113" y="12" dx="0">e</tspan><tspan x="120" y="12" dx="0"> </tspan><tspan x="123" y="12" dx="0">[</tspan><tspan x="128" y="12" dx="0">0</tspan><tspan x="134" y="12" dx="0">.</tspan><tspan x="138" y="12" dx="0">.</tspan><tspan x="141" y="12" dx="0">1</tspan><tspan x="148" y="12" dx="0">]</tspan></text><text stroke="none" fill="#66413F" transform="translate(136 385)"><tspan x="0" y="12" dx="0">+ </tspan></text><text stroke="none" fill="#66413F" transform="translate(157 385)"><tspan x="0" y="12" dx="0">thema: Thema [0..*]</tspan></text><rect x="298" y="53" width="188" height="98" stroke="none" fill="#D0D0D0"/><rect x="295" y="50" width="187" height="97" stroke="none" fill="#99CCFF"/><rect x="295" y="50" width="187" height="98" stroke="#9A8484"/><text stroke="none" fill="#000000" transform="translate(352 56)"><tspan x="0" y="12" dx="0">«</tspan><tspan x="7" y="12" dx="0">O</tspan><tspan x="16" y="12" dx="0">b</tspan><tspan x="23" y="12" dx="0">j</tspan><tspan x="26" y="12" dx="0">e</tspan><tspan x="33" y="12" dx="0">c</tspan><tspan x="38" y="12" dx="0 0">tt</tspan><tspan x="47" y="12" dx="0">y</tspan><tspan x="53" y="12" dx="0">p</tspan><tspan x="59" y="12" dx="0">e</tspan><tspan x="66" y="12" dx="0">»</tspan></text><text stroke="none" fill="#000000" font-weight="700" transform="translate(356 71)"><tspan x="0" y="12" dx="0">Divisietekst</tspan></text><path d="M295 91 482 91" stroke="#9A8484"/><text stroke="none" fill="#000000" transform="translate(308 99)"><tspan x="0" y="12" dx="0">«</tspan><tspan x="7" y="12" dx="0">A</tspan><tspan x="14" y="12" dx="0 0">tt</tspan><tspan x="23" y="12" dx="0">r</tspan><tspan x="27" y="12" dx="0">i</tspan><tspan x="30" y="12" dx="0">b</tspan><tspan x="37" y="12" dx="0">u</tspan><tspan x="43" y="12" dx="0">u</tspan><tspan x="50" y="12" dx="0">t</tspan><tspan x="54" y="12" dx="0">s</tspan><tspan x="60" y="12" dx="0">o</tspan><tspan x="67" y="12" dx="0">o</tspan><tspan x="73" y="12" dx="0">r</tspan><tspan x="78" y="12" dx="0">t</tspan><tspan x="82" y="12" dx="0">»</tspan></text><text stroke="none" fill="#66413F" transform="translate(300 114)"><tspan x="0" y="12" dx="0">+ </tspan></text><text stroke="none" fill="#66413F" transform="translate(321 114)"><tspan x="0" y="12" dx="0">i</tspan><tspan x="3" y="12" dx="0">d</tspan><tspan x="10" y="12" dx="0">e</tspan><tspan x="17" y="12" dx="0">n</tspan><tspan x="23" y="12" dx="0 0">ti</tspan><tspan x="31" y="12" dx="0 0">fi</tspan><tspan x="38" y="12" dx="0">c</tspan><tspan x="44" y="12" dx="0">a</tspan><tspan x="51" y="12" dx="0 0">ti</tspan><tspan x="58" y="12" dx="0">e</tspan><tspan x="65" y="12" dx="0">:</tspan><tspan x="68" y="12" dx="0"> </tspan><tspan x="72" y="12" dx="0">N</tspan><tspan x="80" y="12" dx="0">E</tspan><tspan x="87" y="12" dx="0">N</tspan><tspan x="95" y="12" dx="0">3</tspan><tspan x="102" y="12" dx="0">6</tspan><tspan x="108" y="12" dx="0">1</tspan><tspan x="115" y="12" dx="0">0</tspan><tspan x="122" y="12" dx="0">I</tspan><tspan x="125" y="12" dx="0">D</tspan><tspan x="133" y="12" dx="0"> </tspan><tspan x="137" y="12" dx="0">{</tspan><tspan x="141" y="12" dx="0">i</tspan><tspan x="144" y="12" dx="0">d</tspan><tspan x="151" y="12" dx="0">}</tspan></text><rect x="222" y="195" width="121" height="45" stroke="none" fill="#D0D0D0"/><rect x="219" y="192" width="120" height="44" stroke="none" fill="#CCFFFF"/><rect x="219" y="192" width="120" height="45" stroke="#9A8484"/><text stroke="none" fill="#595959" transform="translate(257 198)"><tspan x="0" y="12" dx="0">«Keuze»</tspan></text><text stroke="none" fill="#595959" font-weight="700" transform="translate(222 213)"><tspan x="0" y="12" dx="0">DivisieOfDivisietekst</tspan></text><path d="M321 593 439 593M439 593 424 599M439 593 424 587" stroke="#69738C" stroke-width="2"/><path d="M169 405 169 546M169 546 163 531M169 546 175 531" stroke="#69738C" stroke-width="2"/><path d="M752 594 639 594M639 594 654 588M639 594 654 600" stroke="#69738C" stroke-width="2"/><path d="M254 404 254 433M254 433 482 433M482 433 482 538M482 538 476 523M482 538 488 523" stroke="#69738C" stroke-width="2"/><path d="M317 192 317 148M317 148 323 163M317 148 311 163" stroke="#69738C" stroke-width="2"/><path d="M248 192 248 147M248 147 254 162M248 147 242 162" stroke="#69738C" stroke-width="2"/><path d="M269 291 269 237M269 237 275 252M269 237 263 252" stroke="#69738C" stroke-width="2"/><path d="M321 337 430 337M430 337 415 343M430 337 415 331" stroke="#69738C" stroke-width="2"/><path d="M560 291 560 257M560 257 504 257M504 257 504 291M504 291 498 276M504 291 510 276" stroke="#69738C" stroke-width="2"/><text stroke="none" fill="#595959" font-size="8" transform="translate(101 518)"><tspan x="0" y="8" dx="0">+gebiedsaanwijzing</tspan></text><text stroke="none" fill="#595959" font-size="8" transform="translate(114 528)"><tspan x="0" y="8" dx="0">«</tspan><tspan x="3.75" y="8" dx="0">R</tspan><tspan x="8" y="8" dx="0">e</tspan><tspan x="11.75" y="8" dx="0">l</tspan><tspan x="13.75" y="8" dx="0">a</tspan><tspan x="17.5" y="8" dx="0 0">ti</tspan><tspan x="22.25" y="8" dx="0">e</tspan><tspan x="26.25" y="8" dx="0">r</tspan><tspan x="29" y="8" dx="0">o</tspan><tspan x="33" y="8" dx="0">l</tspan><tspan x="35" y="8" dx="0">»</tspan></text><text stroke="none" fill="#595959" font-size="8" transform="translate(177 531)"><tspan x="0" y="8" dx="0">0..*</tspan></text><text stroke="none" fill="#595959" font-size="8" transform="translate(365 354)"><tspan x="0" y="8" dx="0">+hoofdlijnaanduiding</tspan></text><text stroke="none" fill="#595959" font-size="8" transform="translate(395 364)"><tspan x="0" y="8" dx="0">«</tspan><tspan x="3.75" y="8" dx="0">R</tspan><tspan x="8" y="8" dx="0">e</tspan><tspan x="11.75" y="8" dx="0">l</tspan><tspan x="13.75" y="8" dx="0">a</tspan><tspan x="17.5" y="8" dx="0 0">ti</tspan><tspan x="22.25" y="8" dx="0">e</tspan><tspan x="26.25" y="8" dx="0">r</tspan><tspan x="29" y="8" dx="0">o</tspan><tspan x="33" y="8" dx="0">l</tspan><tspan x="35" y="8" dx="0">»</tspan></text><text stroke="none" fill="#595959" font-size="8" transform="translate(404 314)"><tspan x="0" y="8" dx="0">0..*</tspan></text><text stroke="none" fill="#595959" font-size="8" transform="translate(370 612)"><tspan x="0" y="8" dx="0">+</tspan><tspan x="4.25" y="8" dx="0">l</tspan><tspan x="6.25" y="8" dx="0">o</tspan><tspan x="10.5" y="8" dx="0">c</tspan><tspan x="13.75" y="8" dx="0">a</tspan><tspan x="17.75" y="8" dx="0 0">ti</tspan><tspan x="22.5" y="8" dx="0">e</tspan><tspan x="26.75" y="8" dx="0">a</tspan><tspan x="30.75" y="8" dx="0">a</tspan><tspan x="34.75" y="8" dx="0">n</tspan><tspan x="39" y="8" dx="0">d</tspan><tspan x="43.25" y="8" dx="0">u</tspan><tspan x="47.25" y="8" dx="0">i</tspan><tspan x="49.25" y="8" dx="0">d</tspan><tspan x="53.25" y="8" dx="0">i</tspan><tspan x="55.25" y="8" dx="0">n</tspan><tspan x="59.25" y="8" dx="0">g</tspan></text><text stroke="none" fill="#595959" font-size="8" transform="translate(394 622)"><tspan x="0" y="8" dx="0">«</tspan><tspan x="3.75" y="8" dx="0">R</tspan><tspan x="8" y="8" dx="0">e</tspan><tspan x="11.75" y="8" dx="0">l</tspan><tspan x="13.75" y="8" dx="0">a</tspan><tspan x="17.5" y="8" dx="0 0">ti</tspan><tspan x="22.25" y="8" dx="0">e</tspan><tspan x="26.25" y="8" dx="0">r</tspan><tspan x="29" y="8" dx="0">o</tspan><tspan x="33" y="8" dx="0">l</tspan><tspan x="35" y="8" dx="0">»</tspan></text><text stroke="none" fill="#595959" font-size="8" transform="translate(422 602)"><tspan x="0" y="8" dx="0">1..*</tspan></text><text stroke="none" fill="#595959" font-size="8" transform="translate(513 228)"><tspan x="0" y="8" dx="0">+gerelateerdeHoofdlijn</tspan></text><text stroke="none" fill="#595959" font-size="8" transform="translate(524 238)"><tspan x="0" y="8" dx="0">«</tspan><tspan x="4.25" y="8" dx="0">R</tspan><tspan x="8.75" y="8" dx="0">e</tspan><tspan x="12.75" y="8" dx="0">l</tspan><tspan x="14.75" y="8" dx="0">a</tspan><tspan x="18.5" y="8" dx="0 0">ti</tspan><tspan x="23.25" y="8" dx="0">e</tspan><tspan x="27.25" y="8" dx="0">r</tspan><tspan x="30" y="8" dx="0">o</tspan><tspan x="34" y="8" dx="0">l</tspan><tspan x="36" y="8" dx="0">»</tspan><tspan x="40" y="8" dx="0"> </tspan><tspan x="42" y="8" dx="0">0</tspan><tspan x="46" y="8" dx="0">.</tspan><tspan x="48" y="8" dx="0">.</tspan><tspan x="50" y="8" dx="0">*</tspan></text><text stroke="none" fill="#595959" font-size="8" transform="translate(260 152)"><tspan x="0" y="8" dx="0">1</tspan></text><text stroke="none" fill="#595959" font-size="8" transform="translate(415 506)"><tspan x="0" y="8" dx="0">+</tspan><tspan x="4.25" y="8" dx="0">l</tspan><tspan x="6.25" y="8" dx="0">o</tspan><tspan x="10.5" y="8" dx="0">c</tspan><tspan x="13.75" y="8" dx="0">a</tspan><tspan x="17.75" y="8" dx="0 0">ti</tspan><tspan x="22.5" y="8" dx="0">e</tspan><tspan x="26.75" y="8" dx="0">a</tspan><tspan x="30.75" y="8" dx="0">a</tspan><tspan x="34.75" y="8" dx="0">n</tspan><tspan x="39" y="8" dx="0">d</tspan><tspan x="43.25" y="8" dx="0">u</tspan><tspan x="47.25" y="8" dx="0">i</tspan><tspan x="49.25" y="8" dx="0">d</tspan><tspan x="53.25" y="8" dx="0">i</tspan><tspan x="55.25" y="8" dx="0">n</tspan><tspan x="59.25" y="8" dx="0">g</tspan></text><text stroke="none" fill="#595959" font-size="8" transform="translate(427 516)"><tspan x="0" y="8" dx="0">«</tspan><tspan x="3.75" y="8" dx="0">R</tspan><tspan x="8" y="8" dx="0">e</tspan><tspan x="11.75" y="8" dx="0">l</tspan><tspan x="13.75" y="8" dx="0">a</tspan><tspan x="17.5" y="8" dx="0 0">ti</tspan><tspan x="22.25" y="8" dx="0">e</tspan><tspan x="26.25" y="8" dx="0">r</tspan><tspan x="29" y="8" dx="0">o</tspan><tspan x="33" y="8" dx="0">l</tspan><tspan x="35" y="8" dx="0">»</tspan></text><text stroke="none" fill="#595959" font-size="8" transform="translate(490 523)"><tspan x="0" y="8" dx="0">0..*</tspan></text><text stroke="none" fill="#595959" font-size="8" transform="translate(204 244)"><tspan x="0" y="8" dx="0">+divisieaanduiding</tspan></text><text stroke="none" fill="#595959" font-size="8" transform="translate(227 254)"><tspan x="0" y="8" dx="0">«</tspan><tspan x="3.75" y="8" dx="0">R</tspan><tspan x="8" y="8" dx="0">e</tspan><tspan x="11.75" y="8" dx="0">l</tspan><tspan x="13.75" y="8" dx="0">a</tspan><tspan x="17.5" y="8" dx="0 0">ti</tspan><tspan x="22.25" y="8" dx="0">e</tspan><tspan x="26.25" y="8" dx="0">r</tspan><tspan x="29" y="8" dx="0">o</tspan><tspan x="33" y="8" dx="0">l</tspan><tspan x="35" y="8" dx="0">»</tspan></text><text stroke="none" fill="#595959" font-size="8" transform="translate(283 245)"><tspan x="0" y="8" dx="0">1</tspan></text><text stroke="none" fill="#595959" font-size="8" transform="translate(659 611)"><tspan x="0" y="8" dx="0">+</tspan><tspan x="4.25" y="8" dx="0">l</tspan><tspan x="6.25" y="8" dx="0">o</tspan><tspan x="10.5" y="8" dx="0">c</tspan><tspan x="13.75" y="8" dx="0">a</tspan><tspan x="17.75" y="8" dx="0 0">ti</tspan><tspan x="22.5" y="8" dx="0">e</tspan><tspan x="26.75" y="8" dx="0">a</tspan><tspan x="30.75" y="8" dx="0">a</tspan><tspan x="34.75" y="8" dx="0">n</tspan><tspan x="39" y="8" dx="0">d</tspan><tspan x="43.25" y="8" dx="0">u</tspan><tspan x="47.25" y="8" dx="0">i</tspan><tspan x="49.25" y="8" dx="0">d</tspan><tspan x="53.25" y="8" dx="0">i</tspan><tspan x="55.25" y="8" dx="0">n</tspan><tspan x="59.25" y="8" dx="0">g</tspan></text><text stroke="none" fill="#595959" font-size="8" transform="translate(659 621)"><tspan x="0" y="8" dx="0">«</tspan><tspan x="3.75" y="8" dx="0">R</tspan><tspan x="8" y="8" dx="0">e</tspan><tspan x="11.75" y="8" dx="0">l</tspan><tspan x="13.75" y="8" dx="0">a</tspan><tspan x="17.5" y="8" dx="0 0">ti</tspan><tspan x="22.25" y="8" dx="0">e</tspan><tspan x="26.25" y="8" dx="0">r</tspan><tspan x="29" y="8" dx="0">o</tspan><tspan x="33" y="8" dx="0">l</tspan><tspan x="35" y="8" dx="0">»</tspan></text><text stroke="none" fill="#595959" font-size="8" transform="translate(654 572)"><tspan x="0" y="8" dx="0">1</tspan></text><text stroke="none" fill="#595959" font-size="8" transform="translate(331 153)"><tspan x="0" y="8" dx="0">1</tspan></text></g></g></g></g></svg>