<svg width="507.952" height="259.361" viewBox="69.6985 53.9412 380.964 194.521" xmlns="http://www.w3.org/2000/svg" xmlns:xlink="http://www.w3.org/1999/xlink" xml:space="preserve" overflow="hidden"><g transform="matrix(1 0 0 -1 0 841)"><g stroke="#000000" stroke-linecap="round" stroke-linejoin="round" stroke-miterlimit="3" fill="none" fill-rule="evenodd" font-weight="400" baseline-shift="0"><g transform="matrix(0.6 0 0 0.6 0 841.65)"><g font-family="CalibriUnicode" font-size="8" transform="scale(0.911954 -0.907119)"><rect x="142" y="115" width="667" height="328" stroke="#9A8484"/><rect x="177" y="144" width="200" height="104" stroke="none" fill="#D0D0D0"/><rect x="174" y="141" width="199" height="103" stroke="none" fill="#FFD700"/><rect x="174" y="141" width="199" height="104" stroke="#9A8484"/><text stroke="none" fill="#595959" transform="translate(252 147)"><tspan x="0" y="8" dx="0">«</tspan><tspan x="4.25" y="8" dx="0">O</tspan><tspan x="9.75" y="8" dx="0">b</tspan><tspan x="14" y="8" dx="0">j</tspan><tspan x="16" y="8" dx="0">e</tspan><tspan x="20.25" y="8" dx="0">c</tspan><tspan x="23.5" y="8" dx="0 0">tt</tspan><tspan x="29" y="8" dx="0">y</tspan><tspan x="32.5" y="8" dx="0">p</tspan><tspan x="36.75" y="8" dx="0">e</tspan><tspan x="41" y="8" dx="0">»</tspan></text><text stroke="none" fill="#595959" font-weight="700" transform="translate(245 157)"><tspan x="0" y="8" dx="0">S</tspan><tspan x="3.5" y="8" dx="0">y</tspan><tspan x="7.25" y="8" dx="0">m</tspan><tspan x="13.75" y="8" dx="0">b</tspan><tspan x="18.25" y="8" dx="0">o</tspan><tspan x="22.75" y="8" dx="0">l</tspan><tspan x="24.75" y="8" dx="0">i</tspan><tspan x="26.75" y="8" dx="0">s</tspan><tspan x="30" y="8" dx="0">a</tspan><tspan x="33.75" y="8" dx="0 0">ti</tspan><tspan x="38.5" y="8" dx="0">e</tspan><tspan x="42.5" y="8" dx="0">I</tspan><tspan x="44.75" y="8" dx="0">t</tspan><tspan x="47.5" y="8" dx="0">e</tspan><tspan x="51.5" y="8" dx="0">m</tspan></text><path d="M174 172 373 172" stroke="#9A8484"/><text stroke="none" fill="#595959" transform="translate(185 180)"><tspan x="0" y="8" dx="0">«</tspan><tspan x="3.75" y="8" dx="0">A</tspan><tspan x="8.5" y="8" dx="0 0">tt</tspan><tspan x="14" y="8" dx="0">r</tspan><tspan x="16.75" y="8" dx="0">i</tspan><tspan x="18.75" y="8" dx="0">b</tspan><tspan x="22.75" y="8" dx="0">u</tspan><tspan x="26.75" y="8" dx="0">u</tspan><tspan x="30.75" y="8" dx="0">t</tspan><tspan x="33.5" y="8" dx="0">s</tspan><tspan x="36.5" y="8" dx="0">o</tspan><tspan x="40.5" y="8" dx="0">o</tspan><tspan x="44.5" y="8" dx="0">r</tspan><tspan x="47.25" y="8" dx="0">t</tspan><tspan x="50" y="8" dx="0">»</tspan></text><text stroke="none" fill="#66413F" transform="translate(179 190)"><tspan x="0" y="8" dx="0">+ </tspan></text><text stroke="none" fill="#66413F" transform="translate(193 190)"><tspan x="0" y="8" dx="0">symboolcode: CharacterString</tspan></text><rect x="176" y="372" width="203" height="58" stroke="none" fill="#D0D0D0"/><rect x="173" y="369" width="202" height="57" stroke="none" fill="#CCFFCC"/><rect x="173" y="369" width="202" height="58" stroke="#9A8484"/><text stroke="none" fill="#595959" transform="translate(237 375)"><tspan x="0" y="8" dx="0">«Gegevensgroeptype»</tspan></text><text stroke="none" fill="#595959" font-weight="700" transform="translate(251 385)"><tspan x="0" y="8" dx="0">Normwaarde</tspan></text><rect x="581" y="167" width="203" height="58" stroke="none" fill="#D0D0D0"/><rect x="578" y="164" width="202" height="57" stroke="none" fill="#CCFFCC"/><rect x="578" y="164" width="202" height="58" stroke="#9A8484"/><text stroke="none" fill="#595959" font-style="italic" transform="translate(745 167)"><tspan x="0" y="8" dx="0">OWobj</tspan></text><text stroke="none" fill="#595959" font-style="italic" transform="translate(768 167)"><tspan x="0" y="8" dx="0">ect</tspan></text><text stroke="none" fill="#595959" transform="translate(657 183)"><tspan x="0" y="8" dx="0">«</tspan><tspan x="4.25" y="8" dx="0">O</tspan><tspan x="9.75" y="8" dx="0">b</tspan><tspan x="14" y="8" dx="0">j</tspan><tspan x="16" y="8" dx="0">e</tspan><tspan x="20.25" y="8" dx="0">c</tspan><tspan x="23.5" y="8" dx="0 0">tt</tspan><tspan x="29" y="8" dx="0">y</tspan><tspan x="32.5" y="8" dx="0">p</tspan><tspan x="36.75" y="8" dx="0">e</tspan><tspan x="41" y="8" dx="0">»</tspan></text><text stroke="none" fill="#595959" font-weight="700" transform="translate(648 193)"><tspan x="0" y="8" dx="0">Gebiedsaanwijzing</tspan></text><rect x="497" y="362" width="203" height="58" stroke="none" fill="#D0D0D0"/><rect x="494" y="359" width="202" height="57" stroke="none" fill="#CCFFCC"/><rect x="494" y="359" width="202" height="58" stroke="#9A8484"/><text stroke="none" fill="#595959" transform="translate(573 365)"><tspan x="0" y="8" dx="0">«</tspan><tspan x="4.25" y="8" dx="0">O</tspan><tspan x="9.75" y="8" dx="0">b</tspan><tspan x="14" y="8" dx="0">j</tspan><tspan x="16" y="8" dx="0">e</tspan><tspan x="20.25" y="8" dx="0">c</tspan><tspan x="23.5" y="8" dx="0 0">tt</tspan><tspan x="29" y="8" dx="0">y</tspan><tspan x="32.5" y="8" dx="0">p</tspan><tspan x="36.75" y="8" dx="0">e</tspan><tspan x="41" y="8" dx="0">»</tspan></text><text stroke="none" fill="#595959" font-weight="700" transform="translate(551 375)"><tspan x="0" y="8" dx="0">A</tspan><tspan x="4.75" y="8" dx="0">c</tspan><tspan x="8" y="8" dx="0 0">ti</tspan><tspan x="12.75" y="8" dx="0">v</tspan><tspan x="16.25" y="8" dx="0">i</tspan><tspan x="18.25" y="8" dx="0">t</tspan><tspan x="21" y="8" dx="0">e</tspan><tspan x="24.75" y="8" dx="0">i</tspan><tspan x="26.75" y="8" dx="0">t</tspan><tspan x="29.5" y="8" dx="0">L</tspan><tspan x="32.75" y="8" dx="0">o</tspan><tspan x="37" y="8" dx="0">c</tspan><tspan x="40.25" y="8" dx="0">a</tspan><tspan x="43.75" y="8" dx="0 0">ti</tspan><tspan x="48.5" y="8" dx="0">e</tspan><tspan x="52.25" y="8" dx="0">a</tspan><tspan x="55.75" y="8" dx="0">a</tspan><tspan x="59.25" y="8" dx="0">n</tspan><tspan x="63.5" y="8" dx="0">d</tspan><tspan x="67.75" y="8" dx="0">u</tspan><tspan x="72.25" y="8" dx="0">i</tspan><tspan x="74.25" y="8" dx="0">d</tspan><tspan x="78.75" y="8" dx="0">i</tspan><tspan x="80.75" y="8" dx="0">n</tspan><tspan x="85.25" y="8" dx="0">g</tspan></text><path d="M374 193 578 193M578 193 563 199M578 193 563 187" stroke="#69738C"/><path d="M344 245 344 283M344 283 568 283M568 283 568 359M568 359 562 344M568 359 574 344" stroke="#69738C"/><path d="M273 245 273 369M273 369 267 354M273 369 279 354" stroke="#69738C"/><text stroke="none" fill="#595959" transform="translate(187 333)"><tspan x="0" y="8" dx="0">+</tspan><tspan x="4.25" y="8" dx="0">n</tspan><tspan x="8.5" y="8" dx="0">o</tspan><tspan x="12.75" y="8" dx="0">r</tspan><tspan x="15.5" y="8" dx="0">m</tspan><tspan x="22" y="8" dx="0">w</tspan><tspan x="28" y="8" dx="0">a</tspan><tspan x="32" y="8" dx="0">a</tspan><tspan x="36" y="8" dx="0">r</tspan><tspan x="38.75" y="8" dx="0">d</tspan><tspan x="43" y="8" dx="0">e</tspan><tspan x="47.25" y="8" dx="0">S</tspan><tspan x="50.75" y="8" dx="0">y</tspan><tspan x="54.25" y="8" dx="0">m</tspan><tspan x="60.75" y="8" dx="0">b</tspan><tspan x="65" y="8" dx="0">o</tspan><tspan x="69.25" y="8" dx="0">l</tspan><tspan x="71.25" y="8" dx="0">i</tspan><tspan x="73.25" y="8" dx="0">s</tspan><tspan x="76.25" y="8" dx="0">a</tspan><tspan x="80.25" y="8" dx="0 0">ti</tspan><tspan x="85" y="8" dx="0">e</tspan></text><text stroke="none" fill="#595959" transform="translate(237 343)"><tspan x="0" y="8" dx="0">«</tspan><tspan x="3.75" y="8" dx="0">R</tspan><tspan x="8" y="8" dx="0">e</tspan><tspan x="11.75" y="8" dx="0">l</tspan><tspan x="13.75" y="8" dx="0">a</tspan><tspan x="17.5" y="8" dx="0 0">ti</tspan><tspan x="22.25" y="8" dx="0">e</tspan><tspan x="26.25" y="8" dx="0">r</tspan><tspan x="29" y="8" dx="0">o</tspan><tspan x="33" y="8" dx="0">l</tspan><tspan x="35" y="8" dx="0">»</tspan></text><text stroke="none" fill="#595959" transform="translate(281 354)"><tspan x="0" y="8" dx="0">0..*</tspan></text><text stroke="none" fill="#595959" transform="translate(476 217)"><tspan x="0" y="8" dx="0">+</tspan><tspan x="4.25" y="8" dx="0">g</tspan><tspan x="8.25" y="8" dx="0">e</tspan><tspan x="12.5" y="8" dx="0">b</tspan><tspan x="16.75" y="8" dx="0">i</tspan><tspan x="18.75" y="8" dx="0">e</tspan><tspan x="23" y="8" dx="0">d</tspan><tspan x="27.25" y="8" dx="0">s</tspan><tspan x="30.25" y="8" dx="0">a</tspan><tspan x="34.25" y="8" dx="0">a</tspan><tspan x="38.25" y="8" dx="0">n</tspan><tspan x="42.5" y="8" dx="0">w</tspan><tspan x="48.5" y="8" dx="0">i</tspan><tspan x="50.5" y="8" dx="0">j</tspan><tspan x="52.5" y="8" dx="0">z</tspan><tspan x="55.75" y="8" dx="0">i</tspan><tspan x="57.75" y="8" dx="0">n</tspan><tspan x="62" y="8" dx="0">g</tspan><tspan x="66" y="8" dx="0">S</tspan><tspan x="69.75" y="8" dx="0">y</tspan><tspan x="73.5" y="8" dx="0">m</tspan><tspan x="80" y="8" dx="0">b</tspan><tspan x="84.25" y="8" dx="0">o</tspan><tspan x="88.5" y="8" dx="0">l</tspan><tspan x="90.5" y="8" dx="0">i</tspan><tspan x="92.5" y="8" dx="0">s</tspan><tspan x="95.5" y="8" dx="0">a</tspan><tspan x="99.25" y="8" dx="0 0">ti</tspan><tspan x="104" y="8" dx="0">e</tspan></text><text stroke="none" fill="#595959" transform="translate(545 227)"><tspan x="0" y="8" dx="0">«</tspan><tspan x="3.75" y="8" dx="0">R</tspan><tspan x="8" y="8" dx="0">e</tspan><tspan x="11.75" y="8" dx="0">l</tspan><tspan x="13.75" y="8" dx="0">a</tspan><tspan x="17.5" y="8" dx="0 0">ti</tspan><tspan x="22.25" y="8" dx="0">e</tspan><tspan x="26.25" y="8" dx="0">r</tspan><tspan x="29" y="8" dx="0">o</tspan><tspan x="33" y="8" dx="0">l</tspan><tspan x="35" y="8" dx="0">»</tspan></text><text stroke="none" fill="#595959" transform="translate(563 198)"><tspan x="0" y="8" dx="0">0..*</tspan></text><text stroke="none" fill="#595959" transform="translate(556 300)"><tspan x="0" y="8" dx="0">+</tspan><tspan x="4.25" y="8" dx="0">a</tspan><tspan x="8.25" y="8" dx="0">c</tspan><tspan x="11.5" y="8" dx="0 0">ti</tspan><tspan x="16.25" y="8" dx="0">v</tspan><tspan x="20" y="8" dx="0">i</tspan><tspan x="22" y="8" dx="0">t</tspan><tspan x="24.75" y="8" dx="0">e</tspan><tspan x="29" y="8" dx="0">i</tspan><tspan x="31" y="8" dx="0">t</tspan><tspan x="33.75" y="8" dx="0">L</tspan><tspan x="37" y="8" dx="0">o</tspan><tspan x="41.25" y="8" dx="0">c</tspan><tspan x="44.5" y="8" dx="0">a</tspan><tspan x="48.5" y="8" dx="0 0">ti</tspan><tspan x="53.25" y="8" dx="0">e</tspan><tspan x="57.5" y="8" dx="0">a</tspan><tspan x="61.5" y="8" dx="0">a</tspan><tspan x="65.5" y="8" dx="0">n</tspan><tspan x="69.75" y="8" dx="0">d</tspan><tspan x="74" y="8" dx="0">u</tspan><tspan x="78.25" y="8" dx="0">i</tspan><tspan x="80.25" y="8" dx="0">d</tspan><tspan x="84.5" y="8" dx="0">i</tspan><tspan x="86.5" y="8" dx="0">n</tspan><tspan x="90.5" y="8" dx="0">g</tspan><tspan x="94.25" y="8" dx="0">S</tspan><tspan x="97.75" y="8" dx="0">y</tspan><tspan x="101.25" y="8" dx="0">m</tspan><tspan x="107.5" y="8" dx="0">b</tspan><tspan x="111.5" y="8" dx="0">o</tspan><tspan x="115.5" y="8" dx="0">l</tspan><tspan x="117.5" y="8" dx="0">i</tspan><tspan x="119.5" y="8" dx="0">s</tspan><tspan x="122.5" y="8" dx="0">a</tspan><tspan x="126.25" y="8" dx="0 0">ti</tspan><tspan x="131" y="8" dx="0">e</tspan></text><text stroke="none" fill="#595959" transform="translate(604 310)"><tspan x="0" y="8" dx="0">«</tspan><tspan x="3.75" y="8" dx="0">R</tspan><tspan x="8" y="8" dx="0">e</tspan><tspan x="11.75" y="8" dx="0">l</tspan><tspan x="13.75" y="8" dx="0">a</tspan><tspan x="17.5" y="8" dx="0 0">ti</tspan><tspan x="22.25" y="8" dx="0">e</tspan><tspan x="26.25" y="8" dx="0">r</tspan><tspan x="29" y="8" dx="0">o</tspan><tspan x="33" y="8" dx="0">l</tspan><tspan x="35" y="8" dx="0">»</tspan></text><text stroke="none" fill="#595959" transform="translate(576 344)"><tspan x="0" y="8" dx="0">0..*</tspan></text></g></g></g></g></svg>