<svg width="672.124" height="614.932" viewBox="13.3404 37.8115 504.093 461.199" xmlns="http://www.w3.org/2000/svg" xmlns:xlink="http://www.w3.org/1999/xlink" xml:space="preserve" overflow="hidden"><g transform="matrix(1 0 0 -1 0 816)"><g stroke="#000000" stroke-linecap="round" stroke-linejoin="round" stroke-miterlimit="3" fill="none" fill-rule="evenodd" font-weight="400" baseline-shift="0"><g transform="matrix(0.6 0 0 0.6 0 816.45)"><g font-family="CalibriUnicode" font-size="13" transform="scale(0.911982 -0.907088)"><rect x="42" y="251" width="190" height="117" stroke="none" fill="#D0D0D0"/><rect x="39" y="248" width="189" height="116" stroke="none" fill="#FFE4E1"/><rect x="39" y="248" width="189" height="117" stroke="#9A8484"/><text stroke="none" fill="#000000" font-style="italic" transform="translate(173 251)"><tspan x="0" y="12" dx="0">OWobject</tspan></text><text stroke="none" fill="#000000" transform="translate(97 272)"><tspan x="0" y="12" dx="0">«</tspan><tspan x="7" y="12" dx="0">O</tspan><tspan x="16" y="12" dx="0">b</tspan><tspan x="23" y="12" dx="0">j</tspan><tspan x="26" y="12" dx="0">e</tspan><tspan x="33" y="12" dx="0">c</tspan><tspan x="38" y="12" dx="0 0">tt</tspan><tspan x="47" y="12" dx="0">y</tspan><tspan x="53" y="12" dx="0">p</tspan><tspan x="59" y="12" dx="0">e</tspan><tspan x="66" y="12" dx="0">»</tspan></text><text stroke="none" fill="#000000" font-style="italic" font-weight="700" transform="translate(114 287)"><tspan x="0" y="12" dx="0">L</tspan><tspan x="6" y="12" dx="0">o</tspan><tspan x="13" y="12" dx="0">c</tspan><tspan x="18" y="12" dx="0">a</tspan><tspan x="25" y="12" dx="0 0">ti</tspan><tspan x="33" y="12" dx="0">e</tspan></text><path d="M39 307 228 307" stroke="#9A8484"/><text stroke="none" fill="#000000" transform="translate(52 315)"><tspan x="0" y="12" dx="0">«</tspan><tspan x="7" y="12" dx="0">A</tspan><tspan x="14" y="12" dx="0 0">tt</tspan><tspan x="23" y="12" dx="0">r</tspan><tspan x="27" y="12" dx="0">i</tspan><tspan x="30" y="12" dx="0">b</tspan><tspan x="37" y="12" dx="0">u</tspan><tspan x="43" y="12" dx="0">u</tspan><tspan x="50" y="12" dx="0">t</tspan><tspan x="54" y="12" dx="0">s</tspan><tspan x="60" y="12" dx="0">o</tspan><tspan x="67" y="12" dx="0">o</tspan><tspan x="73" y="12" dx="0">r</tspan><tspan x="78" y="12" dx="0">t</tspan><tspan x="82" y="12" dx="0">»</tspan></text><text stroke="none" fill="#66413F" transform="translate(44 330)"><tspan x="0" y="12" dx="0">+ </tspan></text><text stroke="none" fill="#66413F" transform="translate(65 330)"><tspan x="0" y="12" dx="0">i</tspan><tspan x="3" y="12" dx="0">d</tspan><tspan x="10" y="12" dx="0">e</tspan><tspan x="17" y="12" dx="0">n</tspan><tspan x="23" y="12" dx="0 0">ti</tspan><tspan x="31" y="12" dx="0 0">fi</tspan><tspan x="38" y="12" dx="0">c</tspan><tspan x="44" y="12" dx="0">a</tspan><tspan x="51" y="12" dx="0 0">ti</tspan><tspan x="58" y="12" dx="0">e</tspan><tspan x="65" y="12" dx="0">:</tspan><tspan x="68" y="12" dx="0"> </tspan><tspan x="72" y="12" dx="0">N</tspan><tspan x="80" y="12" dx="0">E</tspan><tspan x="87" y="12" dx="0">N</tspan><tspan x="95" y="12" dx="0">3</tspan><tspan x="102" y="12" dx="0">6</tspan><tspan x="108" y="12" dx="0">1</tspan><tspan x="115" y="12" dx="0">0</tspan><tspan x="122" y="12" dx="0">I</tspan><tspan x="125" y="12" dx="0">D</tspan></text><text stroke="none" fill="#66413F" transform="translate(44 345)"><tspan x="0" y="12" dx="0">+ </tspan></text><text stroke="none" fill="#66413F" transform="translate(65 345)"><tspan x="0" y="12" dx="0">noemer: CharacterString [0..1]</tspan></text><rect x="522" y="88" width="266" height="127" stroke="none" fill="#D0D0D0"/><rect x="519" y="85" width="265" height="126" stroke="none" stroke-width="2" fill="#FFE4E1"/><rect x="519" y="85" width="265" height="127" stroke="#9A8484" stroke-width="2"/><text stroke="none" fill="#000000" transform="translate(615 91)"><tspan x="0" y="12" dx="0">«</tspan><tspan x="7" y="12" dx="0">O</tspan><tspan x="16" y="12" dx="0">b</tspan><tspan x="23" y="12" dx="0">j</tspan><tspan x="26" y="12" dx="0">e</tspan><tspan x="33" y="12" dx="0">c</tspan><tspan x="38" y="12" dx="0 0">tt</tspan><tspan x="47" y="12" dx="0">y</tspan><tspan x="53" y="12" dx="0">p</tspan><tspan x="59" y="12" dx="0">e</tspan><tspan x="66" y="12" dx="0">»</tspan></text><text stroke="none" fill="#000000" font-weight="700" transform="translate(632 106)"><tspan x="0" y="12" dx="0">Gebied</tspan></text><path d="M519 126 784 126" stroke="#9A8484" stroke-width="2"/><text stroke="none" fill="#000000" transform="translate(532 134)"><tspan x="0" y="12" dx="0">«</tspan><tspan x="7" y="12" dx="0">A</tspan><tspan x="14" y="12" dx="0 0">tt</tspan><tspan x="23" y="12" dx="0">r</tspan><tspan x="27" y="12" dx="0">i</tspan><tspan x="30" y="12" dx="0">b</tspan><tspan x="37" y="12" dx="0">u</tspan><tspan x="43" y="12" dx="0">u</tspan><tspan x="50" y="12" dx="0">t</tspan><tspan x="54" y="12" dx="0">s</tspan><tspan x="60" y="12" dx="0">o</tspan><tspan x="67" y="12" dx="0">o</tspan><tspan x="73" y="12" dx="0">r</tspan><tspan x="78" y="12" dx="0">t</tspan><tspan x="82" y="12" dx="0">»</tspan></text><text stroke="none" fill="#66413F" transform="translate(524 149)"><tspan x="0" y="12" dx="0">+ </tspan></text><text stroke="none" fill="#66413F" transform="translate(545 149)"><tspan x="0" y="12" dx="0">hoogte: WaardeEenheid [0..1]</tspan></text><path d="M519 168 784 168" stroke="#9A8484" stroke-width="2"/><text stroke="none" fill="#000000" font-style="italic" transform="translate(623 172)"><tspan x="0" y="12" dx="0">constraints</tspan></text><text stroke="none" fill="#000000" transform="translate(524 187)"><tspan x="0" y="12" dx="0">{</tspan><tspan x="4" y="12" dx="0">g</tspan><tspan x="11" y="12" dx="0">e</tspan><tspan x="18" y="12" dx="0">o</tspan><tspan x="24" y="12" dx="0">m</tspan><tspan x="34" y="12" dx="0">e</tspan><tspan x="41" y="12" dx="0">t</tspan><tspan x="45" y="12" dx="0">r</tspan><tspan x="49" y="12" dx="0">i</tspan><tspan x="53" y="12" dx="0">e</tspan><tspan x="59" y="12" dx="0"> </tspan><tspan x="63" y="12" dx="0">i</tspan><tspan x="66" y="12" dx="0">s</tspan><tspan x="72" y="12" dx="0"> </tspan><tspan x="75" y="12" dx="0">v</tspan><tspan x="81" y="12" dx="0">a</tspan><tspan x="88" y="12" dx="0">n</tspan><tspan x="94" y="12" dx="0"> </tspan><tspan x="98" y="12" dx="0">t</tspan><tspan x="102" y="12" dx="0">y</tspan><tspan x="108" y="12" dx="0">p</tspan><tspan x="114" y="12" dx="0">e</tspan><tspan x="121" y="12" dx="0"> </tspan><tspan x="124" y="12" dx="0">S</tspan><tspan x="130" y="12" dx="0">u</tspan><tspan x="137" y="12" dx="0">r</tspan><tspan x="141" y="12" dx="0">f</tspan><tspan x="145" y="12" dx="0">a</tspan><tspan x="152" y="12" dx="0">c</tspan><tspan x="158" y="12" dx="0">e</tspan><tspan x="164" y="12" dx="0"> </tspan><tspan x="168" y="12" dx="0">o</tspan><tspan x="174" y="12" dx="0">f</tspan><tspan x="178" y="12" dx="0"> </tspan><tspan x="182" y="12" dx="0">M</tspan><tspan x="193" y="12" dx="0">u</tspan><tspan x="199" y="12" dx="0">l</tspan><tspan x="203" y="12" dx="0 0">ti</tspan><tspan x="210" y="12" dx="0">S</tspan><tspan x="216" y="12" dx="0">u</tspan><tspan x="223" y="12" dx="0">r</tspan><tspan x="227" y="12" dx="0">f</tspan><tspan x="231" y="12" dx="0">a</tspan><tspan x="238" y="12" dx="0">c</tspan><tspan x="243" y="12" dx="0">e</tspan><tspan x="250" y="12" dx="0">}</tspan></text><rect x="307" y="144" width="131" height="54" stroke="none" fill="#D0D0D0"/><rect x="304" y="141" width="130" height="53" stroke="none" stroke-width="2" fill="#FFE4E1"/><rect x="304" y="141" width="130" height="54" stroke="#9A8484" stroke-width="2"/><text stroke="none" fill="#000000" transform="translate(333 147)"><tspan x="0" y="12" dx="0">«</tspan><tspan x="7" y="12" dx="0">O</tspan><tspan x="16" y="12" dx="0">b</tspan><tspan x="23" y="12" dx="0">j</tspan><tspan x="26" y="12" dx="0">e</tspan><tspan x="33" y="12" dx="0">c</tspan><tspan x="38" y="12" dx="0 0">tt</tspan><tspan x="47" y="12" dx="0">y</tspan><tspan x="53" y="12" dx="0">p</tspan><tspan x="59" y="12" dx="0">e</tspan><tspan x="66" y="12" dx="0">»</tspan></text><text stroke="none" fill="#000000" font-weight="700" transform="translate(325 162)"><tspan x="0" y="12" dx="0">Gebiedengroep</tspan></text><rect x="534" y="478" width="242" height="128" stroke="none" fill="#D0D0D0"/><rect x="531" y="475" width="241" height="127" stroke="none" stroke-width="2" fill="#FFE4E1"/><rect x="531" y="475" width="241" height="128" stroke="#9A8484" stroke-width="2"/><text stroke="none" fill="#000000" transform="translate(615 481)"><tspan x="0" y="12" dx="0">«</tspan><tspan x="7" y="12" dx="0">O</tspan><tspan x="16" y="12" dx="0">b</tspan><tspan x="23" y="12" dx="0">j</tspan><tspan x="26" y="12" dx="0">e</tspan><tspan x="33" y="12" dx="0">c</tspan><tspan x="38" y="12" dx="0 0">tt</tspan><tspan x="47" y="12" dx="0">y</tspan><tspan x="53" y="12" dx="0">p</tspan><tspan x="59" y="12" dx="0">e</tspan><tspan x="66" y="12" dx="0">»</tspan></text><text stroke="none" fill="#000000" font-weight="700" transform="translate(638 496)"><tspan x="0" y="12" dx="0">Punt</tspan></text><path d="M531 516 772 516" stroke="#9A8484" stroke-width="2"/><text stroke="none" fill="#000000" transform="translate(544 524)"><tspan x="0" y="12" dx="0">«</tspan><tspan x="7" y="12" dx="0">A</tspan><tspan x="14" y="12" dx="0 0">tt</tspan><tspan x="23" y="12" dx="0">r</tspan><tspan x="27" y="12" dx="0">i</tspan><tspan x="30" y="12" dx="0">b</tspan><tspan x="37" y="12" dx="0">u</tspan><tspan x="43" y="12" dx="0">u</tspan><tspan x="50" y="12" dx="0">t</tspan><tspan x="54" y="12" dx="0">s</tspan><tspan x="60" y="12" dx="0">o</tspan><tspan x="67" y="12" dx="0">o</tspan><tspan x="73" y="12" dx="0">r</tspan><tspan x="78" y="12" dx="0">t</tspan><tspan x="82" y="12" dx="0">»</tspan></text><text stroke="none" fill="#66413F" transform="translate(536 539)"><tspan x="0" y="12" dx="0">+ </tspan></text><text stroke="none" fill="#66413F" transform="translate(557 539)"><tspan x="0" y="12" dx="0">hoogte: WaardeEenheid [0..1]</tspan></text><path d="M531 558 772 558" stroke="#9A8484" stroke-width="2"/><text stroke="none" fill="#000000" font-style="italic" transform="translate(623 562)"><tspan x="0" y="12" dx="0">constraints</tspan></text><text stroke="none" fill="#000000" transform="translate(536 577)"><tspan x="0" y="12" dx="0">{</tspan><tspan x="4" y="12" dx="0">g</tspan><tspan x="11" y="12" dx="0">e</tspan><tspan x="18" y="12" dx="0">o</tspan><tspan x="24" y="12" dx="0">m</tspan><tspan x="34" y="12" dx="0">e</tspan><tspan x="41" y="12" dx="0">t</tspan><tspan x="45" y="12" dx="0">r</tspan><tspan x="49" y="12" dx="0">i</tspan><tspan x="53" y="12" dx="0">e</tspan><tspan x="59" y="12" dx="0"> </tspan><tspan x="63" y="12" dx="0">i</tspan><tspan x="66" y="12" dx="0">s</tspan><tspan x="72" y="12" dx="0"> </tspan><tspan x="75" y="12" dx="0">v</tspan><tspan x="81" y="12" dx="0">a</tspan><tspan x="88" y="12" dx="0">n</tspan><tspan x="94" y="12" dx="0"> </tspan><tspan x="98" y="12" dx="0">t</tspan><tspan x="102" y="12" dx="0">y</tspan><tspan x="108" y="12" dx="0">p</tspan><tspan x="114" y="12" dx="0">e</tspan><tspan x="121" y="12" dx="0"> </tspan><tspan x="124" y="12" dx="0">P</tspan><tspan x="131" y="12" dx="0">o</tspan><tspan x="138" y="12" dx="0">i</tspan><tspan x="141" y="12" dx="0">n</tspan><tspan x="148" y="12" dx="0">t</tspan><tspan x="152" y="12" dx="0"> </tspan><tspan x="155" y="12" dx="0">o</tspan><tspan x="162" y="12" dx="0">f</tspan><tspan x="166" y="12" dx="0"> </tspan><tspan x="169" y="12" dx="0">M</tspan><tspan x="180" y="12" dx="0">u</tspan><tspan x="187" y="12" dx="0">l</tspan><tspan x="190" y="12" dx="0 0">ti</tspan><tspan x="198" y="12" dx="0">P</tspan><tspan x="204" y="12" dx="0">o</tspan><tspan x="211" y="12" dx="0">i</tspan><tspan x="214" y="12" dx="0">n</tspan><tspan x="221" y="12" dx="0">t</tspan><tspan x="225" y="12" dx="0">}</tspan></text><rect x="529" y="291" width="242" height="127" stroke="none" fill="#D0D0D0"/><rect x="526" y="288" width="241" height="126" stroke="none" stroke-width="2" fill="#FFE4E1"/><rect x="526" y="288" width="241" height="127" stroke="#9A8484" stroke-width="2"/><text stroke="none" fill="#000000" transform="translate(610 294)"><tspan x="0" y="12" dx="0">«</tspan><tspan x="7" y="12" dx="0">O</tspan><tspan x="16" y="12" dx="0">b</tspan><tspan x="23" y="12" dx="0">j</tspan><tspan x="26" y="12" dx="0">e</tspan><tspan x="33" y="12" dx="0">c</tspan><tspan x="38" y="12" dx="0 0">tt</tspan><tspan x="47" y="12" dx="0">y</tspan><tspan x="53" y="12" dx="0">p</tspan><tspan x="59" y="12" dx="0">e</tspan><tspan x="66" y="12" dx="0">»</tspan></text><text stroke="none" fill="#000000" font-weight="700" transform="translate(637 309)"><tspan x="0" y="12" dx="0">Lijn</tspan></text><path d="M526 329 767 329" stroke="#9A8484" stroke-width="2"/><text stroke="none" fill="#000000" transform="translate(539 337)"><tspan x="0" y="12" dx="0">«</tspan><tspan x="7" y="12" dx="0">A</tspan><tspan x="14" y="12" dx="0 0">tt</tspan><tspan x="23" y="12" dx="0">r</tspan><tspan x="27" y="12" dx="0">i</tspan><tspan x="30" y="12" dx="0">b</tspan><tspan x="37" y="12" dx="0">u</tspan><tspan x="43" y="12" dx="0">u</tspan><tspan x="50" y="12" dx="0">t</tspan><tspan x="54" y="12" dx="0">s</tspan><tspan x="60" y="12" dx="0">o</tspan><tspan x="67" y="12" dx="0">o</tspan><tspan x="73" y="12" dx="0">r</tspan><tspan x="78" y="12" dx="0">t</tspan><tspan x="82" y="12" dx="0">»</tspan></text><text stroke="none" fill="#66413F" transform="translate(531 352)"><tspan x="0" y="12" dx="0">+ </tspan></text><text stroke="none" fill="#66413F" transform="translate(552 352)"><tspan x="0" y="12" dx="0">hoogte: WaardeEenheid [0..1]</tspan></text><path d="M526 371 767 371" stroke="#9A8484" stroke-width="2"/><text stroke="none" fill="#000000" font-style="italic" transform="translate(618 375)"><tspan x="0" y="12" dx="0">constraints</tspan></text><text stroke="none" fill="#000000" transform="translate(531 390)"><tspan x="0" y="12" dx="0">{</tspan><tspan x="4" y="12" dx="0">g</tspan><tspan x="11" y="12" dx="0">e</tspan><tspan x="18" y="12" dx="0">o</tspan><tspan x="24" y="12" dx="0">m</tspan><tspan x="34" y="12" dx="0">e</tspan><tspan x="41" y="12" dx="0">t</tspan><tspan x="45" y="12" dx="0">r</tspan><tspan x="49" y="12" dx="0">i</tspan><tspan x="53" y="12" dx="0">e</tspan><tspan x="59" y="12" dx="0"> </tspan><tspan x="63" y="12" dx="0">i</tspan><tspan x="66" y="12" dx="0">s</tspan><tspan x="72" y="12" dx="0"> </tspan><tspan x="75" y="12" dx="0">v</tspan><tspan x="81" y="12" dx="0">a</tspan><tspan x="88" y="12" dx="0">n</tspan><tspan x="94" y="12" dx="0"> </tspan><tspan x="98" y="12" dx="0">t</tspan><tspan x="102" y="12" dx="0">y</tspan><tspan x="108" y="12" dx="0">p</tspan><tspan x="114" y="12" dx="0">e</tspan><tspan x="121" y="12" dx="0"> </tspan><tspan x="124" y="12" dx="0">C</tspan><tspan x="132" y="12" dx="0">u</tspan><tspan x="138" y="12" dx="0">r</tspan><tspan x="143" y="12" dx="0">v</tspan><tspan x="148" y="12" dx="0">e</tspan><tspan x="155" y="12" dx="0"> </tspan><tspan x="158" y="12" dx="0">o</tspan><tspan x="165" y="12" dx="0">f</tspan><tspan x="169" y="12" dx="0"> </tspan><tspan x="173" y="12" dx="0">M</tspan><tspan x="183" y="12" dx="0">u</tspan><tspan x="190" y="12" dx="0">l</tspan><tspan x="193" y="12" dx="0 0">ti</tspan><tspan x="201" y="12" dx="0">C</tspan><tspan x="208" y="12" dx="0">u</tspan><tspan x="215" y="12" dx="0">r</tspan><tspan x="219" y="12" dx="0">v</tspan><tspan x="225" y="12" dx="0">e</tspan><tspan x="232" y="12" dx="0">}</tspan></text><rect x="308" y="555" width="130" height="51" stroke="none" fill="#D0D0D0"/><rect x="305" y="552" width="129" height="50" stroke="none" stroke-width="2" fill="#FFE4E1"/><rect x="305" y="552" width="129" height="51" stroke="#9A8484" stroke-width="2"/><text stroke="none" fill="#000000" transform="translate(333 558)"><tspan x="0" y="12" dx="0">«</tspan><tspan x="7" y="12" dx="0">O</tspan><tspan x="16" y="12" dx="0">b</tspan><tspan x="23" y="12" dx="0">j</tspan><tspan x="26" y="12" dx="0">e</tspan><tspan x="33" y="12" dx="0">c</tspan><tspan x="38" y="12" dx="0 0">tt</tspan><tspan x="47" y="12" dx="0">y</tspan><tspan x="53" y="12" dx="0">p</tspan><tspan x="59" y="12" dx="0">e</tspan><tspan x="66" y="12" dx="0">»</tspan></text><text stroke="none" fill="#000000" font-weight="700" transform="translate(332 573)"><tspan x="0" y="12" dx="0">Puntengroep</tspan></text><rect x="308" y="360" width="130" height="50" stroke="none" fill="#D0D0D0"/><rect x="305" y="357" width="129" height="49" stroke="none" stroke-width="2" fill="#FFE4E1"/><rect x="305" y="357" width="129" height="50" stroke="#9A8484" stroke-width="2"/><text stroke="none" fill="#000000" transform="translate(333 363)"><tspan x="0" y="12" dx="0">«</tspan><tspan x="7" y="12" dx="0">O</tspan><tspan x="16" y="12" dx="0">b</tspan><tspan x="23" y="12" dx="0">j</tspan><tspan x="26" y="12" dx="0">e</tspan><tspan x="33" y="12" dx="0">c</tspan><tspan x="38" y="12" dx="0 0">tt</tspan><tspan x="47" y="12" dx="0">y</tspan><tspan x="53" y="12" dx="0">p</tspan><tspan x="59" y="12" dx="0">e</tspan><tspan x="66" y="12" dx="0">»</tspan></text><text stroke="none" fill="#000000" font-weight="700" transform="translate(336 378)"><tspan x="0" y="12" dx="0">Lijnengroep</tspan></text><rect x="722" y="708" width="165" height="108" stroke="none" fill="#D0D0D0"/><rect x="719" y="705" width="164" height="107" stroke="none" stroke-width="2" fill="#D8BFD8"/><rect x="719" y="705" width="164" height="108" stroke="#9A8484" stroke-width="2"/><text stroke="none" fill="#000000" transform="translate(765 711)"><tspan x="0" y="12" dx="0">«</tspan><tspan x="7" y="12" dx="0">O</tspan><tspan x="16" y="12" dx="0">b</tspan><tspan x="23" y="12" dx="0">j</tspan><tspan x="26" y="12" dx="0">e</tspan><tspan x="33" y="12" dx="0">c</tspan><tspan x="38" y="12" dx="0 0">tt</tspan><tspan x="47" y="12" dx="0">y</tspan><tspan x="53" y="12" dx="0">p</tspan><tspan x="59" y="12" dx="0">e</tspan><tspan x="66" y="12" dx="0">»</tspan></text><text stroke="none" fill="#000000" font-weight="700" transform="translate(771 726)"><tspan x="0" y="12" dx="0">Geometrie</tspan></text><path d="M719 746 883 746" stroke="#9A8484" stroke-width="2"/><text stroke="none" fill="#000000" transform="translate(732 754)"><tspan x="0" y="12" dx="0">«</tspan><tspan x="7" y="12" dx="0">A</tspan><tspan x="14" y="12" dx="0 0">tt</tspan><tspan x="23" y="12" dx="0">r</tspan><tspan x="27" y="12" dx="0">i</tspan><tspan x="30" y="12" dx="0">b</tspan><tspan x="37" y="12" dx="0">u</tspan><tspan x="43" y="12" dx="0">u</tspan><tspan x="50" y="12" dx="0">t</tspan><tspan x="54" y="12" dx="0">s</tspan><tspan x="60" y="12" dx="0">o</tspan><tspan x="67" y="12" dx="0">o</tspan><tspan x="73" y="12" dx="0">r</tspan><tspan x="78" y="12" dx="0">t</tspan><tspan x="82" y="12" dx="0">»</tspan></text><text stroke="none" fill="#66413F" transform="translate(724 769)"><tspan x="0" y="12" dx="0">+ </tspan></text><text stroke="none" fill="#66413F" transform="translate(745 769)"><tspan x="0" y="12" dx="0">id: CharacterString {id}</tspan></text><text stroke="none" fill="#66413F" transform="translate(724 784)"><tspan x="0" y="12" dx="0">+ </tspan></text><text stroke="none" fill="#66413F" transform="translate(745 784)"><tspan x="0" y="12" dx="0">geometrie: GM_Object</tspan></text><rect x="318" y="664" width="371" height="99" stroke="none" fill="#D0D0D0"/><rect x="315" y="661" width="370" height="98" stroke="none" stroke-width="2" fill="#FFE4E1"/><rect x="315" y="661" width="370" height="99" stroke="#9A8484" stroke-width="2"/><text stroke="none" fill="#000000" transform="translate(464 667)"><tspan x="0" y="12" dx="0">«</tspan><tspan x="7" y="12" dx="0">O</tspan><tspan x="16" y="12" dx="0">b</tspan><tspan x="23" y="12" dx="0">j</tspan><tspan x="26" y="12" dx="0">e</tspan><tspan x="33" y="12" dx="0">c</tspan><tspan x="38" y="12" dx="0 0">tt</tspan><tspan x="47" y="12" dx="0">y</tspan><tspan x="53" y="12" dx="0">p</tspan><tspan x="59" y="12" dx="0">e</tspan><tspan x="66" y="12" dx="0">»</tspan></text><text stroke="none" fill="#000000" font-weight="700" transform="translate(463 682)"><tspan x="0" y="12" dx="0">Ambtsgebied</tspan></text><path d="M315 702 685 702" stroke="#9A8484" stroke-width="2"/><text stroke="none" fill="#000000" transform="translate(328 710)"><tspan x="0" y="12" dx="0">«Gegevensgroep»</tspan></text><text stroke="none" fill="#66413F" transform="translate(320 725)"><tspan x="0" y="12" dx="0">+ </tspan></text><text stroke="none" fill="#66413F" transform="translate(341 725)"><tspan x="0" y="12" dx="0">bestuurlijkeGrenzenVerwijzing: BestuurlijkeGrenzenVerwijzing</tspan></text><rect x="42" y="393" width="159" height="99" stroke="none" fill="#D0D0D0"/><rect x="39" y="390" width="158" height="98" stroke="none" fill="#FAFAD2"/><rect x="39" y="390" width="158" height="99" stroke="#9A8484"/><text stroke="none" fill="#595959" transform="translate(51 396)"><tspan x="0" y="12" dx="0">«Gestructureerd dataty...</tspan></text><text stroke="none" fill="#595959" font-weight="700" transform="translate(73 411)"><tspan x="0" y="12" dx="0">WaardeEenheid</tspan></text><path d="M39 431 197 431" stroke="#9A8484"/><text stroke="none" fill="#595959" transform="translate(52 439)"><tspan x="0" y="12" dx="0">«Data element»</tspan></text><text stroke="none" fill="#66413F" transform="translate(44 454)"><tspan x="0" y="12" dx="0">+ </tspan></text><text stroke="none" fill="#66413F" transform="translate(65 454)"><tspan x="0" y="12" dx="0">waarde: Real</tspan></text><text stroke="none" fill="#66413F" transform="translate(44 469)"><tspan x="0" y="12" dx="0">+ </tspan></text><text stroke="none" fill="#66413F" transform="translate(65 469)"><tspan x="0" y="12" dx="0">eenheid: Eenheid</tspan></text><rect x="426" y="789" width="245" height="114" stroke="none" fill="#D0D0D0"/><rect x="423" y="786" width="244" height="113" stroke="none" stroke-width="2" fill="#FFE4E1"/><rect x="423" y="786" width="244" height="114" stroke="#9A8484" stroke-width="2"/><text stroke="none" fill="#000000" transform="translate(486 792)"><tspan x="0" y="12" dx="0">«Gegevensgroeptype»</tspan></text><text stroke="none" fill="#000000" font-weight="700" transform="translate(459 807)"><tspan x="0" y="12" dx="0">BestuurlijkeGrenzenVerwijzing</tspan></text><path d="M423 827 667 827" stroke="#9A8484" stroke-width="2"/><text stroke="none" fill="#000000" transform="translate(436 835)"><tspan x="0" y="12" dx="0">«</tspan><tspan x="7" y="12" dx="0">A</tspan><tspan x="14" y="12" dx="0 0">tt</tspan><tspan x="23" y="12" dx="0">r</tspan><tspan x="27" y="12" dx="0">i</tspan><tspan x="30" y="12" dx="0">b</tspan><tspan x="37" y="12" dx="0">u</tspan><tspan x="43" y="12" dx="0">u</tspan><tspan x="50" y="12" dx="0">t</tspan><tspan x="54" y="12" dx="0">s</tspan><tspan x="60" y="12" dx="0">o</tspan><tspan x="67" y="12" dx="0">o</tspan><tspan x="73" y="12" dx="0">r</tspan><tspan x="78" y="12" dx="0">t</tspan><tspan x="82" y="12" dx="0">»</tspan></text><text stroke="none" fill="#66413F" transform="translate(428 850)"><tspan x="0" y="12" dx="0">+ </tspan></text><text stroke="none" fill="#66413F" transform="translate(449 850)"><tspan x="0" y="12" dx="0">domein: CharacterString</tspan></text><text stroke="none" fill="#66413F" transform="translate(428 865)"><tspan x="0" y="12" dx="0">+ </tspan></text><text stroke="none" fill="#66413F" transform="translate(449 865)"><tspan x="0" y="12" dx="0">bestuurlijkeGrenzenID: CharacterString</tspan></text><text stroke="none" fill="#66413F" transform="translate(428 880)"><tspan x="0" y="12" dx="0">+ </tspan></text><text stroke="none" fill="#66413F" transform="translate(449 880)"><tspan x="0" y="12" dx="0">geldigOp: Date</tspan></text><path d="M525 318 279 318M279 306 229 306" stroke="#69738C" stroke-width="2"/><path d="M245 300 245 312 229 306 245 300" stroke="#69738C" stroke-width="2" fill="#FCF2E3"/><path d="M769 355 835 355M835 355 835 704M835 704 829 689M835 704 841 689" stroke="#69738C" stroke-width="2"/><path d="M785 148 858 148M858 148 858 705M858 705 852 690M858 705 864 690" stroke="#69738C" stroke-width="2"/><path d="M773 529 812 529M812 529 812 705M812 705 806 690M812 705 818 690" stroke="#69738C" stroke-width="2"/><path d="M436 167 519 167M519 167 504 173M519 167 504 161" stroke="#69738C" stroke-width="2"/><path d="M518 116 279 116M279 116 279 306" stroke="#69738C" stroke-width="2"/><path d="M530 538 279 538" stroke="#69738C" stroke-width="2"/><path d="M436 576 531 576M531 576 516 582M531 576 516 570" stroke="#69738C" stroke-width="2"/><path d="M304 382 279 382" stroke="#69738C" stroke-width="2"/><path d="M304 577 279 577" stroke="#69738C" stroke-width="2"/><path d="M303 167 279 167" stroke="#69738C" stroke-width="2"/><path d="M314 710 279 710M279 710 279 306" stroke="#69738C" stroke-width="2"/><path d="M436 382 526 382M526 382 511 388M526 382 511 376" stroke="#69738C" stroke-width="2"/><text stroke="none" fill="#595959" font-size="8" transform="translate(892 666)"><tspan x="0" y="8" dx="0">+geometrie</tspan></text><text stroke="none" fill="#595959" font-size="8" transform="translate(892 676)"><tspan x="0" y="8" dx="0">«</tspan><tspan x="3.75" y="8" dx="0">R</tspan><tspan x="8" y="8" dx="0">e</tspan><tspan x="11.75" y="8" dx="0">l</tspan><tspan x="13.75" y="8" dx="0">a</tspan><tspan x="17.5" y="8" dx="0 0">ti</tspan><tspan x="22.25" y="8" dx="0">e</tspan><tspan x="26.25" y="8" dx="0">r</tspan><tspan x="29" y="8" dx="0">o</tspan><tspan x="33" y="8" dx="0">l</tspan><tspan x="35" y="8" dx="0">»</tspan></text><text stroke="none" fill="#595959" font-size="8" transform="translate(866 690)"><tspan x="0" y="8" dx="0">1</tspan></text><text stroke="none" fill="#595959" font-size="8" transform="translate(474 396)"><tspan x="0" y="8" dx="0">+groepselement</tspan></text><text stroke="none" fill="#595959" font-size="8" transform="translate(481 406)"><tspan x="0" y="8" dx="0">«</tspan><tspan x="3.75" y="8" dx="0">R</tspan><tspan x="8" y="8" dx="0">e</tspan><tspan x="11.75" y="8" dx="0">l</tspan><tspan x="13.75" y="8" dx="0">a</tspan><tspan x="17.5" y="8" dx="0 0">ti</tspan><tspan x="22.25" y="8" dx="0">e</tspan><tspan x="26.25" y="8" dx="0">r</tspan><tspan x="29" y="8" dx="0">o</tspan><tspan x="33" y="8" dx="0">l</tspan><tspan x="35" y="8" dx="0">»</tspan></text><text stroke="none" fill="#595959" font-size="8" transform="translate(508 357)"><tspan x="0" y="8" dx="0">1..*</tspan></text><text stroke="none" fill="#595959" font-size="8" transform="translate(777 633)"><tspan x="0" y="8" dx="0">+geometrie</tspan></text><text stroke="none" fill="#595959" font-size="8" transform="translate(777 643)"><tspan x="0" y="8" dx="0">«</tspan><tspan x="3.75" y="8" dx="0">R</tspan><tspan x="8" y="8" dx="0">e</tspan><tspan x="11.75" y="8" dx="0">l</tspan><tspan x="13.75" y="8" dx="0">a</tspan><tspan x="17.5" y="8" dx="0 0">ti</tspan><tspan x="22.25" y="8" dx="0">e</tspan><tspan x="26.25" y="8" dx="0">r</tspan><tspan x="29" y="8" dx="0">o</tspan><tspan x="33" y="8" dx="0">l</tspan><tspan x="35" y="8" dx="0">»</tspan></text><text stroke="none" fill="#595959" font-size="8" transform="translate(843 689)"><tspan x="0" y="8" dx="0">1</tspan></text><text stroke="none" fill="#595959" font-size="8" transform="translate(773 669)"><tspan x="0" y="8" dx="0">+geometrie</tspan></text><text stroke="none" fill="#595959" font-size="8" transform="translate(773 679)"><tspan x="0" y="8" dx="0">«</tspan><tspan x="3.75" y="8" dx="0">R</tspan><tspan x="8" y="8" dx="0">e</tspan><tspan x="11.75" y="8" dx="0">l</tspan><tspan x="13.75" y="8" dx="0">a</tspan><tspan x="17.5" y="8" dx="0 0">ti</tspan><tspan x="22.25" y="8" dx="0">e</tspan><tspan x="26.25" y="8" dx="0">r</tspan><tspan x="29" y="8" dx="0">o</tspan><tspan x="33" y="8" dx="0">l</tspan><tspan x="35" y="8" dx="0">»</tspan></text><text stroke="none" fill="#595959" font-size="8" transform="translate(820 690)"><tspan x="0" y="8" dx="0">1</tspan></text><text stroke="none" fill="#595959" font-size="8" transform="translate(473 589)"><tspan x="0" y="8" dx="0">+groepselement</tspan></text><text stroke="none" fill="#595959" font-size="8" transform="translate(480 599)"><tspan x="0" y="8" dx="0">«</tspan><tspan x="3.75" y="8" dx="0">R</tspan><tspan x="8" y="8" dx="0">e</tspan><tspan x="11.75" y="8" dx="0">l</tspan><tspan x="13.75" y="8" dx="0">a</tspan><tspan x="17.5" y="8" dx="0 0">ti</tspan><tspan x="22.25" y="8" dx="0">e</tspan><tspan x="26.25" y="8" dx="0">r</tspan><tspan x="29" y="8" dx="0">o</tspan><tspan x="33" y="8" dx="0">l</tspan><tspan x="35" y="8" dx="0">»</tspan></text><text stroke="none" fill="#595959" font-size="8" transform="translate(509 551)"><tspan x="0" y="8" dx="0">1..*</tspan></text><text stroke="none" fill="#595959" font-size="8" transform="translate(467 181)"><tspan x="0" y="8" dx="0">+groepselement</tspan></text><text stroke="none" fill="#595959" font-size="8" transform="translate(474 191)"><tspan x="0" y="8" dx="0">«</tspan><tspan x="3.75" y="8" dx="0">R</tspan><tspan x="8" y="8" dx="0">e</tspan><tspan x="11.75" y="8" dx="0">l</tspan><tspan x="13.75" y="8" dx="0">a</tspan><tspan x="17.5" y="8" dx="0 0">ti</tspan><tspan x="22.25" y="8" dx="0">e</tspan><tspan x="26.25" y="8" dx="0">r</tspan><tspan x="29" y="8" dx="0">o</tspan><tspan x="33" y="8" dx="0">l</tspan><tspan x="35" y="8" dx="0">»</tspan></text><text stroke="none" fill="#595959" font-size="8" transform="translate(501 146)"><tspan x="0" y="8" dx="0">1..*</tspan></text></g></g></g></g></svg>