<svg width="122.743" height="144.701" viewBox="6.22648 4.41249 92.057 108.526" xmlns="http://www.w3.org/2000/svg" xmlns:xlink="http://www.w3.org/1999/xlink" xml:space="preserve" overflow="hidden"><g transform="matrix(1 0 0 -1 0 841)"><g stroke="#000000" stroke-linecap="round" stroke-linejoin="round" stroke-miterlimit="3" fill="none" fill-rule="evenodd" font-weight="400" baseline-shift="0"><g transform="matrix(0.6 0 0 0.6 0 841.65)"><g font-family="CalibriUnicode" font-size="8" transform="scale(0.911954 -0.907119)"><path d="M26 30C26 24 26 24 32 24L159 24C165 24 165 24 165 30L165 188C165 194 165 194 159 194L32 194C26 194 26 194 26 188L26 30" stroke="none" fill="#F4F4F4"/><path d="M26 30C26 24 26 24 32 24L159 24C165 24 165 24 165 30L165 188C165 194 165 194 159 194L32 194C26 194 26 194 26 188L26 30" stroke="#E5E5E5"/><rect x="36" y="54" width="16" height="16" stroke="none" fill="#99CCFF"/><rect x="36" y="54" width="16" height="17"/><text stroke="none" fill="#003060" transform="translate(58 57)"><tspan x="0" y="8" dx="0">OP-Koppelingsverwijzing</tspan></text><rect x="36" y="73" width="16" height="16" stroke="none" fill="#CCFFFF"/><rect x="36" y="73" width="16" height="17"/><text stroke="none" fill="#003060" transform="translate(58 76)"><tspan x="0" y="8" dx="0">Regelobject</tspan></text><rect x="36" y="92" width="16" height="16" stroke="none" fill="#CBFECB"/><rect x="36" y="92" width="16" height="17"/><text stroke="none" fill="#003060" transform="translate(58 95)"><tspan x="0" y="8" dx="0">R</tspan><tspan x="4.5" y="8" dx="0">e</tspan><tspan x="8.5" y="8" dx="0">g</tspan><tspan x="12.25" y="8" dx="0">e</tspan><tspan x="16.25" y="8" dx="0">l</tspan><tspan x="18.25" y="8" dx="0">l</tspan><tspan x="20.25" y="8" dx="0">o</tspan><tspan x="24.25" y="8" dx="0">c</tspan><tspan x="27.5" y="8" dx="0">a</tspan><tspan x="31.25" y="8" dx="0 0">ti</tspan><tspan x="36" y="8" dx="0">e</tspan></text><rect x="36" y="111" width="16" height="16" stroke="none" fill="#FBF9C6"/><rect x="36" y="111" width="16" height="17"/><text stroke="none" fill="#003060" transform="translate(58 114)"><tspan x="0" y="8" dx="0">Datatypes</tspan></text><rect x="36" y="130" width="16" height="16" stroke="none" fill="#FEE3E0"/><rect x="36" y="130" width="16" height="17"/><text stroke="none" fill="#003060" transform="translate(58 133)"><tspan x="0" y="8" dx="0">L</tspan><tspan x="3.25" y="8" dx="0">o</tspan><tspan x="7.25" y="8" dx="0">c</tspan><tspan x="10.5" y="8" dx="0">a</tspan><tspan x="14.25" y="8" dx="0 0">ti</tspan><tspan x="19" y="8" dx="0">e</tspan></text><rect x="36" y="149" width="16" height="16" stroke="none" fill="#D8BFD8"/><rect x="36" y="149" width="16" height="17"/><text stroke="none" fill="#003060" transform="translate(58 152)"><tspan x="0" y="8" dx="0">Geometrie</tspan></text><rect x="36" y="168" width="16" height="16" stroke="none" fill="#FFFFFF"/><rect x="36" y="168" width="16" height="17"/><text stroke="none" fill="#003060" transform="translate(58 171)"><tspan x="0" y="8" dx="0">Context</tspan></text><text stroke="none" fill="#003060" font-weight="700" font-size="16" transform="translate(64 31)"><tspan x="0" y="12" dx="0">Legenda</tspan></text></g></g></g></g></svg>