<svg width="581.178" height="480.957" viewBox="26.4436 26.6529 435.884 360.718" xmlns="http://www.w3.org/2000/svg" xmlns:xlink="http://www.w3.org/1999/xlink" xml:space="preserve" overflow="hidden"><g transform="matrix(1 0 0 -1 0 768)"><g stroke="#000000" stroke-linecap="round" stroke-linejoin="round" stroke-miterlimit="3" fill="none" fill-rule="evenodd" font-weight="400" baseline-shift="0"><g transform="matrix(0.6 0 0 0.6 0 768.2)"><g font-family="CalibriUnicode" font-size="8" transform="scale(0.911206 -0.907629)"><rect x="335" y="67" width="263" height="177" stroke="none" fill="#D0D0D0"/><rect x="332" y="64" width="262" height="176" stroke="none" fill="#FFFE99"/><rect x="332" y="64" width="262" height="177" stroke="#9A8484"/><text stroke="none" fill="#000000" font-style="italic" font-size="13" transform="translate(539 67)"><tspan x="0" y="12" dx="0">OWobject</tspan></text><text stroke="none" fill="#000000" font-size="13" transform="translate(427 88)"><tspan x="0" y="12" dx="0">«</tspan><tspan x="7" y="12" dx="0">O</tspan><tspan x="16" y="12" dx="0">b</tspan><tspan x="23" y="12" dx="0">j</tspan><tspan x="26" y="12" dx="0">e</tspan><tspan x="33" y="12" dx="0">c</tspan><tspan x="38" y="12" dx="0 0">tt</tspan><tspan x="47" y="12" dx="0">y</tspan><tspan x="53" y="12" dx="0">p</tspan><tspan x="59" y="12" dx="0">e</tspan><tspan x="66" y="12" dx="0">»</tspan></text><text stroke="none" fill="#000000" font-weight="700" font-size="13" transform="translate(448 103)"><tspan x="0" y="12" dx="0">Kaart</tspan></text><path d="M332 123 594 123" stroke="#9A8484"/><text stroke="none" fill="#000000" font-size="13" transform="translate(345 131)"><tspan x="0" y="12" dx="0">«</tspan><tspan x="7" y="12" dx="0">A</tspan><tspan x="14" y="12" dx="0 0">tt</tspan><tspan x="23" y="12" dx="0">r</tspan><tspan x="27" y="12" dx="0">i</tspan><tspan x="30" y="12" dx="0">b</tspan><tspan x="37" y="12" dx="0">u</tspan><tspan x="43" y="12" dx="0">u</tspan><tspan x="50" y="12" dx="0">t</tspan><tspan x="54" y="12" dx="0">s</tspan><tspan x="60" y="12" dx="0">o</tspan><tspan x="67" y="12" dx="0">o</tspan><tspan x="73" y="12" dx="0">r</tspan><tspan x="78" y="12" dx="0">t</tspan><tspan x="82" y="12" dx="0">»</tspan></text><text stroke="none" fill="#66413F" font-size="13" transform="translate(337 146)"><tspan x="0" y="12" dx="0">+ </tspan></text><text stroke="none" fill="#66413F" font-size="13" transform="translate(358 146)"><tspan x="0" y="12" dx="0">i</tspan><tspan x="3" y="12" dx="0">d</tspan><tspan x="10" y="12" dx="0">e</tspan><tspan x="17" y="12" dx="0">n</tspan><tspan x="23" y="12" dx="0 0">ti</tspan><tspan x="31" y="12" dx="0 0">fi</tspan><tspan x="38" y="12" dx="0">c</tspan><tspan x="44" y="12" dx="0">a</tspan><tspan x="51" y="12" dx="0 0">ti</tspan><tspan x="58" y="12" dx="0">e</tspan><tspan x="65" y="12" dx="0">:</tspan><tspan x="68" y="12" dx="0"> </tspan><tspan x="72" y="12" dx="0">N</tspan><tspan x="80" y="12" dx="0">E</tspan><tspan x="87" y="12" dx="0">N</tspan><tspan x="95" y="12" dx="0">3</tspan><tspan x="102" y="12" dx="0">6</tspan><tspan x="108" y="12" dx="0">1</tspan><tspan x="115" y="12" dx="0">0</tspan><tspan x="122" y="12" dx="0">I</tspan><tspan x="125" y="12" dx="0">D</tspan><tspan x="133" y="12" dx="0"> </tspan><tspan x="137" y="12" dx="0">{</tspan><tspan x="141" y="12" dx="0">i</tspan><tspan x="144" y="12" dx="0">d</tspan><tspan x="151" y="12" dx="0">}</tspan></text><text stroke="none" fill="#66413F" font-size="13" transform="translate(337 161)"><tspan x="0" y="12" dx="0">+ </tspan></text><text stroke="none" fill="#66413F" font-size="13" transform="translate(358 161)"><tspan x="0" y="12" dx="0">naam: CharacterString</tspan></text><text stroke="none" fill="#66413F" font-size="13" transform="translate(337 176)"><tspan x="0" y="12" dx="0">+ </tspan></text><text stroke="none" fill="#66413F" font-size="13" transform="translate(358 176)"><tspan x="0" y="12" dx="0">nummer: CharacterString [0..1]</tspan></text><text stroke="none" fill="#000000" font-size="13" transform="translate(345 195)"><tspan x="0" y="12" dx="0">«Gegevensgroep»</tspan></text><text stroke="none" fill="#66413F" font-size="13" transform="translate(337 210)"><tspan x="0" y="12" dx="0">+ </tspan></text><text stroke="none" fill="#66413F" font-size="13" transform="translate(358 210)"><tspan x="0" y="12" dx="0">uitsnede: Kaartextent</tspan></text><rect x="335" y="308" width="263" height="166" stroke="none" fill="#D0D0D0"/><rect x="332" y="305" width="262" height="165" stroke="none" fill="#FFFE99"/><rect x="332" y="305" width="262" height="166" stroke="#9A8484"/><text stroke="none" fill="#000000" font-style="italic" font-size="13" transform="translate(539 308)"><tspan x="0" y="12" dx="0">OWobject</tspan></text><text stroke="none" fill="#000000" font-size="13" transform="translate(427 329)"><tspan x="0" y="12" dx="0">«</tspan><tspan x="7" y="12" dx="0">O</tspan><tspan x="16" y="12" dx="0">b</tspan><tspan x="23" y="12" dx="0">j</tspan><tspan x="26" y="12" dx="0">e</tspan><tspan x="33" y="12" dx="0">c</tspan><tspan x="38" y="12" dx="0 0">tt</tspan><tspan x="47" y="12" dx="0">y</tspan><tspan x="53" y="12" dx="0">p</tspan><tspan x="59" y="12" dx="0">e</tspan><tspan x="66" y="12" dx="0">»</tspan></text><text stroke="none" fill="#000000" font-weight="700" font-size="13" transform="translate(436 344)"><tspan x="0" y="12" dx="0">Kaartlaag</tspan></text><path d="M332 364 594 364" stroke="#9A8484"/><text stroke="none" fill="#000000" font-size="13" transform="translate(345 372)"><tspan x="0" y="12" dx="0">«</tspan><tspan x="7" y="12" dx="0">A</tspan><tspan x="14" y="12" dx="0 0">tt</tspan><tspan x="23" y="12" dx="0">r</tspan><tspan x="27" y="12" dx="0">i</tspan><tspan x="30" y="12" dx="0">b</tspan><tspan x="37" y="12" dx="0">u</tspan><tspan x="43" y="12" dx="0">u</tspan><tspan x="50" y="12" dx="0">t</tspan><tspan x="54" y="12" dx="0">s</tspan><tspan x="60" y="12" dx="0">o</tspan><tspan x="67" y="12" dx="0">o</tspan><tspan x="73" y="12" dx="0">r</tspan><tspan x="78" y="12" dx="0">t</tspan><tspan x="82" y="12" dx="0">»</tspan></text><text stroke="none" fill="#66413F" font-size="13" transform="translate(337 387)"><tspan x="0" y="12" dx="0">+ </tspan></text><text stroke="none" fill="#66413F" font-size="13" transform="translate(358 387)"><tspan x="0" y="12" dx="0">i</tspan><tspan x="3" y="12" dx="0">d</tspan><tspan x="10" y="12" dx="0">e</tspan><tspan x="17" y="12" dx="0">n</tspan><tspan x="23" y="12" dx="0 0">ti</tspan><tspan x="31" y="12" dx="0 0">fi</tspan><tspan x="38" y="12" dx="0">c</tspan><tspan x="44" y="12" dx="0">a</tspan><tspan x="51" y="12" dx="0 0">ti</tspan><tspan x="58" y="12" dx="0">e</tspan><tspan x="65" y="12" dx="0">:</tspan><tspan x="68" y="12" dx="0"> </tspan><tspan x="72" y="12" dx="0">N</tspan><tspan x="80" y="12" dx="0">E</tspan><tspan x="87" y="12" dx="0">N</tspan><tspan x="95" y="12" dx="0">3</tspan><tspan x="102" y="12" dx="0">6</tspan><tspan x="108" y="12" dx="0">1</tspan><tspan x="115" y="12" dx="0">0</tspan><tspan x="122" y="12" dx="0">I</tspan><tspan x="125" y="12" dx="0">D</tspan></text><text stroke="none" fill="#66413F" font-size="13" transform="translate(337 402)"><tspan x="0" y="12" dx="0">+ </tspan></text><text stroke="none" fill="#66413F" font-size="13" transform="translate(358 402)"><tspan x="0" y="12" dx="0">naam: CharacterString [0..1]</tspan></text><text stroke="none" fill="#66413F" font-size="13" transform="translate(337 417)"><tspan x="0" y="12" dx="0">+ </tspan></text><text stroke="none" fill="#66413F" font-size="13" transform="translate(358 417)"><tspan x="0" y="12" dx="0">niveau: Integer</tspan></text><rect x="95" y="544" width="208" height="144" stroke="none" fill="#D0D0D0"/><rect x="92" y="541" width="207" height="143" stroke="none" fill="#CCFFCC"/><rect x="92" y="541" width="207" height="144" stroke="#9A8484"/><text stroke="none" fill="#595959" font-style="italic" transform="translate(264 544)"><tspan x="0" y="8" dx="0">OWobj</tspan></text><text stroke="none" fill="#595959" font-style="italic" transform="translate(287 544)"><tspan x="0" y="8" dx="0">ect</tspan></text><text stroke="none" fill="#595959" transform="translate(174 560)"><tspan x="0" y="8" dx="0">«</tspan><tspan x="4.25" y="8" dx="0">O</tspan><tspan x="9.75" y="8" dx="0">b</tspan><tspan x="14" y="8" dx="0">j</tspan><tspan x="16" y="8" dx="0">e</tspan><tspan x="20.25" y="8" dx="0">c</tspan><tspan x="23.5" y="8" dx="0 0">tt</tspan><tspan x="29" y="8" dx="0">y</tspan><tspan x="32.5" y="8" dx="0">p</tspan><tspan x="36.75" y="8" dx="0">e</tspan><tspan x="41" y="8" dx="0">»</tspan></text><text stroke="none" fill="#595959" font-weight="700" transform="translate(164 570)"><tspan x="0" y="8" dx="0">Gebiedsaanwijzing</tspan></text><path d="M92 585 299 585" stroke="#9A8484"/><text stroke="none" fill="#595959" transform="translate(103 593)"><tspan x="0" y="8" dx="0">«</tspan><tspan x="3.75" y="8" dx="0">A</tspan><tspan x="8.5" y="8" dx="0 0">tt</tspan><tspan x="14" y="8" dx="0">r</tspan><tspan x="16.75" y="8" dx="0">i</tspan><tspan x="18.75" y="8" dx="0">b</tspan><tspan x="22.75" y="8" dx="0">u</tspan><tspan x="26.75" y="8" dx="0">u</tspan><tspan x="30.75" y="8" dx="0">t</tspan><tspan x="33.5" y="8" dx="0">s</tspan><tspan x="36.5" y="8" dx="0">o</tspan><tspan x="40.5" y="8" dx="0">o</tspan><tspan x="44.5" y="8" dx="0">r</tspan><tspan x="47.25" y="8" dx="0">t</tspan><tspan x="50" y="8" dx="0">»</tspan></text><text stroke="none" fill="#66413F" transform="translate(97 603)"><tspan x="0" y="8" dx="0">+ </tspan></text><text stroke="none" fill="#66413F" transform="translate(111 603)"><tspan x="0" y="8" dx="0">i</tspan><tspan x="2" y="8" dx="0">d</tspan><tspan x="5.75" y="8" dx="0">e</tspan><tspan x="9.5" y="8" dx="0">n</tspan><tspan x="13.5" y="8" dx="0 0">ti</tspan><tspan x="18.25" y="8" dx="0 0">fi</tspan><tspan x="22.75" y="8" dx="0">c</tspan><tspan x="26" y="8" dx="0">a</tspan><tspan x="29.75" y="8" dx="0 0">ti</tspan><tspan x="34.5" y="8" dx="0">e</tspan><tspan x="38.5" y="8" dx="0">:</tspan><tspan x="40.75" y="8" dx="0"> </tspan><tspan x="42.75" y="8" dx="0">N</tspan><tspan x="48" y="8" dx="0">E</tspan><tspan x="51.75" y="8" dx="0">N</tspan><tspan x="57" y="8" dx="0">3</tspan><tspan x="61" y="8" dx="0">6</tspan><tspan x="65" y="8" dx="0">1</tspan><tspan x="69" y="8" dx="0">0</tspan><tspan x="73" y="8" dx="0">I</tspan><tspan x="75" y="8" dx="0">D</tspan><tspan x="80" y="8" dx="0"> </tspan><tspan x="82" y="8" dx="0">{</tspan><tspan x="84.5" y="8" dx="0">i</tspan><tspan x="86.5" y="8" dx="0">d</tspan><tspan x="90.5" y="8" dx="0">}</tspan></text><text stroke="none" fill="#66413F" transform="translate(97 613)"><tspan x="0" y="8" dx="0">+ </tspan></text><text stroke="none" fill="#66413F" transform="translate(111 613)"><tspan x="0" y="8" dx="0">type: TypeGebiedsaanwijzing</tspan></text><text stroke="none" fill="#66413F" transform="translate(97 623)"><tspan x="0" y="8" dx="0">+ </tspan></text><text stroke="none" fill="#66413F" transform="translate(111 623)"><tspan x="0" y="8" dx="0">naam: CharacterString</tspan></text><text stroke="none" fill="#66413F" transform="translate(97 633)"><tspan x="0" y="8" dx="0">+ </tspan></text><text stroke="none" fill="#66413F" transform="translate(111 633)"><tspan x="0" y="8" dx="0">groep: Gebiedsaanwijzinggroep</tspan></text><rect x="350" y="536" width="159" height="161" stroke="none" fill="#D0D0D0"/><rect x="347" y="533" width="158" height="160" stroke="none" fill="#CCFFCC"/><rect x="347" y="533" width="158" height="161" stroke="#9A8484"/><text stroke="none" fill="#000000" font-style="italic" font-size="10" transform="translate(462 536)"><tspan x="0" y="10" dx="0">OWobject</tspan></text><text stroke="none" fill="#000000" font-size="10" transform="translate(399 555)"><tspan x="0" y="10" dx="0">«</tspan><tspan x="5.5" y="10" dx="0">O</tspan><tspan x="12.5" y="10" dx="0">b</tspan><tspan x="18.5" y="10" dx="0">j</tspan><tspan x="20.5" y="10" dx="0">e</tspan><tspan x="26" y="10" dx="0">c</tspan><tspan x="30.5" y="10" dx="0 0">tt</tspan><tspan x="37.5" y="10" dx="0">y</tspan><tspan x="42" y="10" dx="0">p</tspan><tspan x="48" y="10" dx="0">e</tspan><tspan x="53" y="10" dx="0">»</tspan></text><text stroke="none" fill="#000000" font-style="italic" font-weight="700" font-size="10" transform="translate(415 568)"><tspan x="0" y="10" dx="0">Norm</tspan></text><path d="M347 586 505 586" stroke="#9A8484"/><text stroke="none" fill="#000000" font-size="10" transform="translate(359 594)"><tspan x="0" y="10" dx="0">«</tspan><tspan x="5.5" y="10" dx="0">A</tspan><tspan x="12" y="10" dx="0 0">tt</tspan><tspan x="19" y="10" dx="0">r</tspan><tspan x="22.5" y="10" dx="0">i</tspan><tspan x="24.5" y="10" dx="0">b</tspan><tspan x="30.5" y="10" dx="0">u</tspan><tspan x="36.5" y="10" dx="0">u</tspan><tspan x="42.5" y="10" dx="0">t</tspan><tspan x="46" y="10" dx="0">s</tspan><tspan x="50" y="10" dx="0">o</tspan><tspan x="55.5" y="10" dx="0">o</tspan><tspan x="61" y="10" dx="0">r</tspan><tspan x="64.5" y="10" dx="0">t</tspan><tspan x="68" y="10" dx="0">»</tspan></text><text stroke="none" fill="#66413F" font-size="10" transform="translate(352 607)"><tspan x="0" y="10" dx="0">+ </tspan></text><text stroke="none" fill="#66413F" font-size="10" transform="translate(369 607)"><tspan x="0" y="10" dx="0">i</tspan><tspan x="2.5" y="10" dx="0">d</tspan><tspan x="9" y="10" dx="0">e</tspan><tspan x="15" y="10" dx="0">n</tspan><tspan x="21.5" y="10" dx="0 0">ti</tspan><tspan x="28" y="10" dx="0 0">fi</tspan><tspan x="33.5" y="10" dx="0">c</tspan><tspan x="38.5" y="10" dx="0">a</tspan><tspan x="44" y="10" dx="0 0">ti</tspan><tspan x="49.5" y="10" dx="0">e</tspan><tspan x="55" y="10" dx="0">:</tspan><tspan x="57.5" y="10" dx="0"> </tspan><tspan x="60" y="10" dx="0">N</tspan><tspan x="67" y="10" dx="0">E</tspan><tspan x="72.5" y="10" dx="0">N</tspan><tspan x="79.5" y="10" dx="0">3</tspan><tspan x="85" y="10" dx="0">6</tspan><tspan x="90.5" y="10" dx="0">1</tspan><tspan x="96" y="10" dx="0">0</tspan><tspan x="101.5" y="10" dx="0">I</tspan><tspan x="104" y="10" dx="0">D</tspan><tspan x="110.5" y="10" dx="0"> </tspan><tspan x="113" y="10" dx="0">{</tspan><tspan x="116.5" y="10" dx="0">i</tspan><tspan x="118.5" y="10" dx="0">d</tspan><tspan x="124.5" y="10" dx="0">}</tspan></text><text stroke="none" fill="#66413F" font-size="10" transform="translate(352 620)"><tspan x="0" y="10" dx="0">+ </tspan></text><text stroke="none" fill="#66413F" font-size="10" transform="translate(369 620)"><tspan x="0" y="10" dx="0">naam: CharacterString</tspan></text><text stroke="none" fill="#66413F" font-size="10" transform="translate(352 633)"><tspan x="0" y="10" dx="0">+ </tspan></text><text stroke="none" fill="#66413F" font-size="10" transform="translate(369 633)"><tspan x="0" y="10" dx="0">type: Typenorm</tspan></text><text stroke="none" fill="#66413F" font-size="10" transform="translate(352 646)"><tspan x="0" y="10" dx="0">+ </tspan></text><text stroke="none" fill="#66413F" font-size="10" transform="translate(369 646)"><tspan x="0" y="10" dx="0">eenheid: Eenheid [0..1]</tspan></text><text stroke="none" fill="#000000" font-size="10" transform="translate(359 663)"><tspan x="0" y="10" dx="0">«Gegevensgroep»</tspan></text><text stroke="none" fill="#66413F" font-size="10" transform="translate(352 676)"><tspan x="0" y="10" dx="0">+ </tspan></text><text stroke="none" fill="#66413F" font-size="10" transform="translate(369 676)"><tspan x="0" y="10" dx="0">nor</tspan></text><text stroke="none" fill="#66413F" font-size="10" transform="translate(384 676)"><tspan x="0" y="10" dx="0">mwaarde: Normwaarde [1..*]</tspan></text><rect x="66" y="67" width="139" height="118" stroke="none" fill="#D0D0D0"/><rect x="63" y="64" width="138" height="117" stroke="none" fill="#CCFFFF"/><rect x="63" y="64" width="138" height="118" stroke="#9A8484"/><text stroke="none" fill="#595959" font-style="italic" transform="translate(166 67)"><tspan x="0" y="8" dx="0">OWobj</tspan></text><text stroke="none" fill="#595959" font-style="italic" transform="translate(189 67)"><tspan x="0" y="8" dx="0">ect</tspan></text><text stroke="none" fill="#595959" transform="translate(110 83)"><tspan x="0" y="8" dx="0">«</tspan><tspan x="4.25" y="8" dx="0">O</tspan><tspan x="9.75" y="8" dx="0">b</tspan><tspan x="14" y="8" dx="0">j</tspan><tspan x="16" y="8" dx="0">e</tspan><tspan x="20.25" y="8" dx="0">c</tspan><tspan x="23.5" y="8" dx="0 0">tt</tspan><tspan x="29" y="8" dx="0">y</tspan><tspan x="32.5" y="8" dx="0">p</tspan><tspan x="36.75" y="8" dx="0">e</tspan><tspan x="41" y="8" dx="0">»</tspan></text><text stroke="none" fill="#595959" font-weight="700" transform="translate(116 93)"><tspan x="0" y="8" dx="0">Tekstdeel</tspan></text><path d="M63 108 201 108" stroke="#9A8484"/><text stroke="none" fill="#595959" transform="translate(74 116)"><tspan x="0" y="8" dx="0">«</tspan><tspan x="3.75" y="8" dx="0">A</tspan><tspan x="8.5" y="8" dx="0 0">tt</tspan><tspan x="14" y="8" dx="0">r</tspan><tspan x="16.75" y="8" dx="0">i</tspan><tspan x="18.75" y="8" dx="0">b</tspan><tspan x="22.75" y="8" dx="0">u</tspan><tspan x="26.75" y="8" dx="0">u</tspan><tspan x="30.75" y="8" dx="0">t</tspan><tspan x="33.5" y="8" dx="0">s</tspan><tspan x="36.5" y="8" dx="0">o</tspan><tspan x="40.5" y="8" dx="0">o</tspan><tspan x="44.5" y="8" dx="0">r</tspan><tspan x="47.25" y="8" dx="0">t</tspan><tspan x="50" y="8" dx="0">»</tspan></text><text stroke="none" fill="#66413F" transform="translate(68 126)"><tspan x="0" y="8" dx="0">+ </tspan></text><text stroke="none" fill="#66413F" transform="translate(82 126)"><tspan x="0" y="8" dx="0">i</tspan><tspan x="2" y="8" dx="0">d</tspan><tspan x="5.75" y="8" dx="0">e</tspan><tspan x="9.5" y="8" dx="0">n</tspan><tspan x="13.5" y="8" dx="0 0">ti</tspan><tspan x="18.25" y="8" dx="0 0">fi</tspan><tspan x="22.75" y="8" dx="0">c</tspan><tspan x="26" y="8" dx="0">a</tspan><tspan x="29.75" y="8" dx="0 0">ti</tspan><tspan x="34.5" y="8" dx="0">e</tspan><tspan x="38.5" y="8" dx="0">:</tspan><tspan x="40.75" y="8" dx="0"> </tspan><tspan x="42.75" y="8" dx="0">N</tspan><tspan x="48" y="8" dx="0">E</tspan><tspan x="51.75" y="8" dx="0">N</tspan><tspan x="57" y="8" dx="0">3</tspan><tspan x="61" y="8" dx="0">6</tspan><tspan x="65" y="8" dx="0">1</tspan><tspan x="69" y="8" dx="0">0</tspan><tspan x="73" y="8" dx="0">I</tspan><tspan x="75" y="8" dx="0">D</tspan><tspan x="80" y="8" dx="0"> </tspan><tspan x="82" y="8" dx="0">{</tspan><tspan x="84.5" y="8" dx="0">i</tspan><tspan x="86.5" y="8" dx="0">d</tspan><tspan x="90.5" y="8" dx="0">}</tspan></text><text stroke="none" fill="#66413F" transform="translate(68 136)"><tspan x="0" y="8" dx="0">+ </tspan></text><text stroke="none" fill="#66413F" transform="translate(82 136)"><tspan x="0" y="8" dx="0">i</tspan><tspan x="2" y="8" dx="0">d</tspan><tspan x="6.25" y="8" dx="0">e</tspan><tspan x="10.5" y="8" dx="0">a</tspan><tspan x="14.5" y="8" dx="0">l</tspan><tspan x="16.5" y="8" dx="0">i</tspan><tspan x="18.5" y="8" dx="0">s</tspan><tspan x="21.75" y="8" dx="0">a</tspan><tspan x="25.75" y="8" dx="0 0">ti</tspan><tspan x="30.5" y="8" dx="0">e</tspan><tspan x="34.75" y="8" dx="0">:</tspan><tspan x="37" y="8" dx="0"> </tspan><tspan x="39.25" y="8" dx="0">I</tspan><tspan x="41.25" y="8" dx="0">d</tspan><tspan x="45.5" y="8" dx="0">e</tspan><tspan x="49.75" y="8" dx="0">a</tspan><tspan x="53.5" y="8" dx="0">l</tspan><tspan x="55.5" y="8" dx="0">i</tspan><tspan x="57.5" y="8" dx="0">s</tspan><tspan x="60.5" y="8" dx="0">a</tspan><tspan x="64.25" y="8" dx="0 0">ti</tspan><tspan x="69" y="8" dx="0">e</tspan><tspan x="73" y="8" dx="0"> </tspan><tspan x="75" y="8" dx="0">[</tspan><tspan x="77.5" y="8" dx="0">0</tspan><tspan x="81.5" y="8" dx="0">.</tspan><tspan x="83.5" y="8" dx="0">.</tspan><tspan x="85.5" y="8" dx="0">1</tspan><tspan x="89.5" y="8" dx="0">]</tspan></text><text stroke="none" fill="#66413F" transform="translate(68 146)"><tspan x="0" y="8" dx="0">+ </tspan></text><text stroke="none" fill="#66413F" transform="translate(82 146)"><tspan x="0" y="8" dx="0">thema: Thema [0..*]</tspan></text><rect x="650" y="111" width="114" height="122" stroke="none" fill="#D0D0D0"/><rect x="647" y="108" width="113" height="121" stroke="none" fill="#FBF9C6"/><rect x="647" y="108" width="113" height="122" stroke="#9A8484"/><text stroke="none" fill="#595959" transform="translate(667 114)"><tspan x="0" y="8" dx="0">«Gegevensgroeptype»</tspan></text><text stroke="none" fill="#595959" font-weight="700" transform="translate(684 124)"><tspan x="0" y="8" dx="0">Kaartextent</tspan></text><path d="M647 139 760 139" stroke="#9A8484"/><text stroke="none" fill="#595959" transform="translate(658 147)"><tspan x="0" y="8" dx="0">«</tspan><tspan x="3.75" y="8" dx="0">A</tspan><tspan x="8.5" y="8" dx="0 0">tt</tspan><tspan x="14" y="8" dx="0">r</tspan><tspan x="16.75" y="8" dx="0">i</tspan><tspan x="18.75" y="8" dx="0">b</tspan><tspan x="22.75" y="8" dx="0">u</tspan><tspan x="26.75" y="8" dx="0">u</tspan><tspan x="30.75" y="8" dx="0">t</tspan><tspan x="33.5" y="8" dx="0">s</tspan><tspan x="36.5" y="8" dx="0">o</tspan><tspan x="40.5" y="8" dx="0">o</tspan><tspan x="44.5" y="8" dx="0">r</tspan><tspan x="47.25" y="8" dx="0">t</tspan><tspan x="50" y="8" dx="0">»</tspan></text><text stroke="none" fill="#66413F" transform="translate(652 157)"><tspan x="0" y="8" dx="0">+ </tspan></text><text stroke="none" fill="#66413F" transform="translate(666 157)"><tspan x="0" y="8" dx="0">minX: Real</tspan></text><text stroke="none" fill="#66413F" transform="translate(652 167)"><tspan x="0" y="8" dx="0">+ </tspan></text><text stroke="none" fill="#66413F" transform="translate(666 167)"><tspan x="0" y="8" dx="0">minY: Real</tspan></text><text stroke="none" fill="#66413F" transform="translate(652 177)"><tspan x="0" y="8" dx="0">+ </tspan></text><text stroke="none" fill="#66413F" transform="translate(666 177)"><tspan x="0" y="8" dx="0">maxX: Real</tspan></text><text stroke="none" fill="#66413F" transform="translate(652 187)"><tspan x="0" y="8" dx="0">+ </tspan></text><text stroke="none" fill="#66413F" transform="translate(666 187)"><tspan x="0" y="8" dx="0">maxY: Real</tspan></text><rect x="66" y="214" width="139" height="118" stroke="none" fill="#D0D0D0"/><rect x="63" y="211" width="138" height="117" stroke="none" fill="#CCFFFF"/><rect x="63" y="211" width="138" height="118" stroke="#9A8484"/><text stroke="none" fill="#595959" font-style="italic" transform="translate(166 214)"><tspan x="0" y="8" dx="0">OWobj</tspan></text><text stroke="none" fill="#595959" font-style="italic" transform="translate(189 214)"><tspan x="0" y="8" dx="0">ect</tspan></text><text stroke="none" fill="#595959" transform="translate(110 230)"><tspan x="0" y="8" dx="0">«</tspan><tspan x="4.25" y="8" dx="0">O</tspan><tspan x="9.75" y="8" dx="0">b</tspan><tspan x="14" y="8" dx="0">j</tspan><tspan x="16" y="8" dx="0">e</tspan><tspan x="20.25" y="8" dx="0">c</tspan><tspan x="23.5" y="8" dx="0 0">tt</tspan><tspan x="29" y="8" dx="0">y</tspan><tspan x="32.5" y="8" dx="0">p</tspan><tspan x="36.75" y="8" dx="0">e</tspan><tspan x="41" y="8" dx="0">»</tspan></text><text stroke="none" fill="#595959" font-style="italic" font-weight="700" transform="translate(106 240)"><tspan x="0" y="8" dx="0">JuridischeRegel</tspan></text><path d="M63 255 201 255" stroke="#9A8484"/><text stroke="none" fill="#595959" transform="translate(74 263)"><tspan x="0" y="8" dx="0">«</tspan><tspan x="3.75" y="8" dx="0">A</tspan><tspan x="8.5" y="8" dx="0 0">tt</tspan><tspan x="14" y="8" dx="0">r</tspan><tspan x="16.75" y="8" dx="0">i</tspan><tspan x="18.75" y="8" dx="0">b</tspan><tspan x="22.75" y="8" dx="0">u</tspan><tspan x="26.75" y="8" dx="0">u</tspan><tspan x="30.75" y="8" dx="0">t</tspan><tspan x="33.5" y="8" dx="0">s</tspan><tspan x="36.5" y="8" dx="0">o</tspan><tspan x="40.5" y="8" dx="0">o</tspan><tspan x="44.5" y="8" dx="0">r</tspan><tspan x="47.25" y="8" dx="0">t</tspan><tspan x="50" y="8" dx="0">»</tspan></text><text stroke="none" fill="#66413F" transform="translate(68 273)"><tspan x="0" y="8" dx="0">+ </tspan></text><text stroke="none" fill="#66413F" transform="translate(82 273)"><tspan x="0" y="8" dx="0">i</tspan><tspan x="2" y="8" dx="0">d</tspan><tspan x="5.75" y="8" dx="0">e</tspan><tspan x="9.5" y="8" dx="0">n</tspan><tspan x="13.5" y="8" dx="0 0">ti</tspan><tspan x="18.25" y="8" dx="0 0">fi</tspan><tspan x="22.75" y="8" dx="0">c</tspan><tspan x="26" y="8" dx="0">a</tspan><tspan x="29.75" y="8" dx="0 0">ti</tspan><tspan x="34.5" y="8" dx="0">e</tspan><tspan x="38.5" y="8" dx="0">:</tspan><tspan x="40.75" y="8" dx="0"> </tspan><tspan x="42.75" y="8" dx="0">N</tspan><tspan x="48" y="8" dx="0">E</tspan><tspan x="51.75" y="8" dx="0">N</tspan><tspan x="57" y="8" dx="0">3</tspan><tspan x="61" y="8" dx="0">6</tspan><tspan x="65" y="8" dx="0">1</tspan><tspan x="69" y="8" dx="0">0</tspan><tspan x="73" y="8" dx="0">I</tspan><tspan x="75" y="8" dx="0">D</tspan><tspan x="80" y="8" dx="0"> </tspan><tspan x="82" y="8" dx="0">{</tspan><tspan x="84.5" y="8" dx="0">i</tspan><tspan x="86.5" y="8" dx="0">d</tspan><tspan x="90.5" y="8" dx="0">}</tspan></text><text stroke="none" fill="#66413F" transform="translate(68 283)"><tspan x="0" y="8" dx="0">+ </tspan></text><text stroke="none" fill="#66413F" transform="translate(82 283)"><tspan x="0" y="8" dx="0">i</tspan><tspan x="2" y="8" dx="0">d</tspan><tspan x="6.25" y="8" dx="0">e</tspan><tspan x="10.5" y="8" dx="0">a</tspan><tspan x="14.5" y="8" dx="0">l</tspan><tspan x="16.5" y="8" dx="0">i</tspan><tspan x="18.5" y="8" dx="0">s</tspan><tspan x="21.75" y="8" dx="0">a</tspan><tspan x="25.75" y="8" dx="0 0">ti</tspan><tspan x="30.5" y="8" dx="0">e</tspan><tspan x="34.5" y="8" dx="0">:</tspan><tspan x="36.75" y="8" dx="0"> </tspan><tspan x="38.75" y="8" dx="0">I</tspan><tspan x="40.75" y="8" dx="0">d</tspan><tspan x="44.75" y="8" dx="0">e</tspan><tspan x="48.75" y="8" dx="0">a</tspan><tspan x="52.5" y="8" dx="0">l</tspan><tspan x="54.5" y="8" dx="0">i</tspan><tspan x="56.5" y="8" dx="0">s</tspan><tspan x="59.5" y="8" dx="0">a</tspan><tspan x="63.25" y="8" dx="0 0">ti</tspan><tspan x="68" y="8" dx="0">e</tspan></text><text stroke="none" fill="#66413F" transform="translate(68 293)"><tspan x="0" y="8" dx="0">+ </tspan></text><text stroke="none" fill="#66413F" transform="translate(82 293)"><tspan x="0" y="8" dx="0">thema: Thema [0..*]</tspan></text><rect x="591" y="536" width="231" height="89" stroke="none" fill="#D0D0D0"/><rect x="588" y="533" width="230" height="88" stroke="none" fill="#CCFFCC"/><rect x="588" y="533" width="230" height="89" stroke="#9A8484"/><text stroke="none" fill="#000000" font-size="10" transform="translate(676 539)"><tspan x="0" y="10" dx="0">«</tspan><tspan x="5.5" y="10" dx="0">O</tspan><tspan x="12.5" y="10" dx="0">b</tspan><tspan x="18.5" y="10" dx="0">j</tspan><tspan x="20.5" y="10" dx="0">e</tspan><tspan x="26" y="10" dx="0">c</tspan><tspan x="30.5" y="10" dx="0 0">tt</tspan><tspan x="37.5" y="10" dx="0">y</tspan><tspan x="42" y="10" dx="0">p</tspan><tspan x="48" y="10" dx="0">e</tspan><tspan x="53" y="10" dx="0">»</tspan></text><text stroke="none" fill="#000000" font-weight="700" font-size="10" transform="translate(647 552)"><tspan x="0" y="10" dx="0">A</tspan><tspan x="5.5" y="10" dx="0">c</tspan><tspan x="9.5" y="10" dx="0 0">ti</tspan><tspan x="15" y="10" dx="0">v</tspan><tspan x="19.5" y="10" dx="0">i</tspan><tspan x="21.5" y="10" dx="0">t</tspan><tspan x="25" y="10" dx="0">e</tspan><tspan x="30" y="10" dx="0">i</tspan><tspan x="32" y="10" dx="0">t</tspan><tspan x="35.5" y="10" dx="0">L</tspan><tspan x="40" y="10" dx="0">o</tspan><tspan x="45.5" y="10" dx="0">c</tspan><tspan x="50" y="10" dx="0">a</tspan><tspan x="55" y="10" dx="0 0">ti</tspan><tspan x="60.5" y="10" dx="0">e</tspan><tspan x="65.5" y="10" dx="0">a</tspan><tspan x="70.5" y="10" dx="0">a</tspan><tspan x="75.5" y="10" dx="0">n</tspan><tspan x="81" y="10" dx="0">d</tspan><tspan x="86.5" y="10" dx="0">u</tspan><tspan x="92" y="10" dx="0">i</tspan><tspan x="94" y="10" dx="0">d</tspan><tspan x="99.5" y="10" dx="0">i</tspan><tspan x="101.5" y="10" dx="0">n</tspan><tspan x="107" y="10" dx="0">g</tspan></text><path d="M588 570 818 570" stroke="#9A8484"/><text stroke="none" fill="#000000" font-size="10" transform="translate(600 578)"><tspan x="0" y="10" dx="0">«</tspan><tspan x="5.5" y="10" dx="0">A</tspan><tspan x="12" y="10" dx="0 0">tt</tspan><tspan x="19" y="10" dx="0">r</tspan><tspan x="22.5" y="10" dx="0">i</tspan><tspan x="24.5" y="10" dx="0">b</tspan><tspan x="30.5" y="10" dx="0">u</tspan><tspan x="36.5" y="10" dx="0">u</tspan><tspan x="42.5" y="10" dx="0">t</tspan><tspan x="46" y="10" dx="0">s</tspan><tspan x="50" y="10" dx="0">o</tspan><tspan x="55.5" y="10" dx="0">o</tspan><tspan x="61" y="10" dx="0">r</tspan><tspan x="64.5" y="10" dx="0">t</tspan><tspan x="68" y="10" dx="0">»</tspan></text><text stroke="none" fill="#66413F" font-size="10" transform="translate(593 591)"><tspan x="0" y="10" dx="0">+ </tspan></text><text stroke="none" fill="#66413F" font-size="10" transform="translate(610 591)"><tspan x="0" y="10" dx="0">i</tspan><tspan x="2.5" y="10" dx="0">d</tspan><tspan x="9" y="10" dx="0">e</tspan><tspan x="15" y="10" dx="0">n</tspan><tspan x="21.5" y="10" dx="0 0">ti</tspan><tspan x="27.5" y="10" dx="0 0">fi</tspan><tspan x="33" y="10" dx="0">c</tspan><tspan x="38" y="10" dx="0">a</tspan><tspan x="43.5" y="10" dx="0 0">ti</tspan><tspan x="49" y="10" dx="0">e</tspan><tspan x="54.5" y="10" dx="0">:</tspan><tspan x="57" y="10" dx="0"> </tspan><tspan x="59.5" y="10" dx="0">N</tspan><tspan x="66.5" y="10" dx="0">E</tspan><tspan x="72" y="10" dx="0">N</tspan><tspan x="79" y="10" dx="0">3</tspan><tspan x="84.5" y="10" dx="0">6</tspan><tspan x="90" y="10" dx="0">1</tspan><tspan x="95.5" y="10" dx="0">0</tspan><tspan x="101" y="10" dx="0">I</tspan><tspan x="103.5" y="10" dx="0">D</tspan></text><text stroke="none" fill="#66413F" font-size="10" transform="translate(593 604)"><tspan x="0" y="10" dx="0">+ </tspan></text><text stroke="none" fill="#66413F" font-size="10" transform="translate(610 604)"><tspan x="0" y="10" dx="0">a</tspan><tspan x="4.5" y="10" dx="0">c</tspan><tspan x="8.5" y="10" dx="0 0">ti</tspan><tspan x="14" y="10" dx="0">v</tspan><tspan x="18" y="10" dx="0">i</tspan><tspan x="20" y="10" dx="0">t</tspan><tspan x="23.5" y="10" dx="0">e</tspan><tspan x="28" y="10" dx="0">i</tspan><tspan x="30" y="10" dx="0">t</tspan><tspan x="33.5" y="10" dx="0">r</tspan><tspan x="37" y="10" dx="0">e</tspan><tspan x="41.5" y="10" dx="0">g</tspan><tspan x="46" y="10" dx="0">e</tspan><tspan x="50.5" y="10" dx="0">l</tspan><tspan x="52.5" y="10" dx="0">k</tspan><tspan x="57" y="10" dx="0">w</tspan><tspan x="64" y="10" dx="0">a</tspan><tspan x="69" y="10" dx="0">l</tspan><tspan x="71" y="10" dx="0">i</tspan><tspan x="73" y="10" dx="0 0">fi</tspan><tspan x="78.5" y="10" dx="0">c</tspan><tspan x="83" y="10" dx="0">a</tspan><tspan x="88" y="10" dx="0 0">ti</tspan><tspan x="93.5" y="10" dx="0">e</tspan><tspan x="98.5" y="10" dx="0">:</tspan><tspan x="101" y="10" dx="0"> </tspan><tspan x="103" y="10" dx="0">A</tspan><tspan x="109" y="10" dx="0">c</tspan><tspan x="113.5" y="10" dx="0 0">ti</tspan><tspan x="119" y="10" dx="0">v</tspan><tspan x="123.5" y="10" dx="0">i</tspan><tspan x="125.5" y="10" dx="0">t</tspan><tspan x="129" y="10" dx="0">e</tspan><tspan x="134" y="10" dx="0">i</tspan><tspan x="136" y="10" dx="0">t</tspan><tspan x="139.5" y="10" dx="0">r</tspan><tspan x="143" y="10" dx="0">e</tspan><tspan x="148" y="10" dx="0">g</tspan><tspan x="153" y="10" dx="0">e</tspan><tspan x="158" y="10" dx="0">l</tspan><tspan x="160" y="10" dx="0">k</tspan><tspan x="164.5" y="10" dx="0">w</tspan><tspan x="171.5" y="10" dx="0">a</tspan><tspan x="176.5" y="10" dx="0">l</tspan><tspan x="178.5" y="10" dx="0">i</tspan><tspan x="180.5" y="10" dx="0 0">fi</tspan><tspan x="186" y="10" dx="0">c</tspan><tspan x="190.5" y="10" dx="0">a</tspan><tspan x="195.5" y="10" dx="0 0">ti</tspan><tspan x="201" y="10" dx="0">e</tspan></text><path d="M379 471 379 493M379 493 214 493M214 493 214 541M214 541 208 526M214 541 220 526" stroke="#69738C" stroke-width="2"/><path d="M461 241 461 305M461 305 455 290M461 305 467 290" stroke="#69738C" stroke-width="2"/><path d="M202 123 332 123M332 123 317 129M332 123 317 117" stroke="#69738C" stroke-width="2"/><path d="M202 270 254 270M254 270 254 203M254 203 332 203M332 203 317 209M332 203 317 197" stroke="#69738C" stroke-width="2"/><path d="M428 471 428 533M428 533 422 518M428 533 434 518" stroke="#69738C" stroke-width="2"/><path d="M536 471 536 491M536 491 648 491M648 491 648 533M648 533 642 518M648 533 654 518" stroke="#69738C" stroke-width="2"/><text stroke="none" fill="#595959" transform="translate(707 490)"><tspan x="0" y="8" dx="0">+</tspan><tspan x="4.25" y="8" dx="0">a</tspan><tspan x="8.25" y="8" dx="0">c</tspan><tspan x="11.5" y="8" dx="0 0">ti</tspan><tspan x="16.25" y="8" dx="0">v</tspan><tspan x="20" y="8" dx="0">i</tspan><tspan x="22" y="8" dx="0">t</tspan><tspan x="24.75" y="8" dx="0">e</tspan><tspan x="29" y="8" dx="0">i</tspan><tspan x="31" y="8" dx="0">t</tspan><tspan x="33.75" y="8" dx="0">l</tspan><tspan x="35.75" y="8" dx="0">o</tspan><tspan x="40" y="8" dx="0">c</tspan><tspan x="43.25" y="8" dx="0">a</tspan><tspan x="47.25" y="8" dx="0 0">ti</tspan><tspan x="52" y="8" dx="0">e</tspan><tspan x="56.25" y="8" dx="0">a</tspan><tspan x="60.25" y="8" dx="0">a</tspan><tspan x="64.25" y="8" dx="0">n</tspan><tspan x="68.5" y="8" dx="0">d</tspan><tspan x="72.75" y="8" dx="0">u</tspan><tspan x="76.75" y="8" dx="0">i</tspan><tspan x="78.75" y="8" dx="0">d</tspan><tspan x="82.75" y="8" dx="0">i</tspan><tspan x="84.75" y="8" dx="0">n</tspan><tspan x="88.75" y="8" dx="0">g</tspan><tspan x="92.5" y="8" dx="0">w</tspan><tspan x="98.25" y="8" dx="0">e</tspan><tspan x="102.25" y="8" dx="0">e</tspan><tspan x="106.25" y="8" dx="0">r</tspan><tspan x="109" y="8" dx="0">g</tspan><tspan x="112.75" y="8" dx="0">a</tspan><tspan x="116.5" y="8" dx="0">v</tspan><tspan x="120" y="8" dx="0">e</tspan></text><text stroke="none" fill="#595959" transform="translate(707 500)"><tspan x="0" y="8" dx="0">«</tspan><tspan x="3.75" y="8" dx="0">R</tspan><tspan x="8" y="8" dx="0">e</tspan><tspan x="11.75" y="8" dx="0">l</tspan><tspan x="13.75" y="8" dx="0">a</tspan><tspan x="17.5" y="8" dx="0 0">ti</tspan><tspan x="22.25" y="8" dx="0">e</tspan><tspan x="26.25" y="8" dx="0">r</tspan><tspan x="29" y="8" dx="0">o</tspan><tspan x="33" y="8" dx="0">l</tspan><tspan x="35" y="8" dx="0">»</tspan></text><text stroke="none" fill="#595959" transform="translate(656 518)"><tspan x="0" y="8" dx="0">0..*</tspan></text><text stroke="none" fill="#595959" transform="translate(267 174)"><tspan x="0" y="8" dx="0">+kaartaanduiding</tspan></text><text stroke="none" fill="#595959" transform="translate(277 184)"><tspan x="0" y="8" dx="0">«</tspan><tspan x="3.75" y="8" dx="0">R</tspan><tspan x="8" y="8" dx="0">e</tspan><tspan x="11.75" y="8" dx="0">l</tspan><tspan x="13.75" y="8" dx="0">a</tspan><tspan x="17.5" y="8" dx="0 0">ti</tspan><tspan x="22.25" y="8" dx="0">e</tspan><tspan x="26.25" y="8" dx="0">r</tspan><tspan x="29" y="8" dx="0">o</tspan><tspan x="33" y="8" dx="0">l</tspan><tspan x="35" y="8" dx="0">»</tspan></text><text stroke="none" fill="#595959" transform="translate(317 208)"><tspan x="0" y="8" dx="0">0..*</tspan></text><text stroke="none" fill="#595959" transform="translate(270 89)"><tspan x="0" y="8" dx="0">+kaartaanduiding</tspan></text><text stroke="none" fill="#595959" transform="translate(280 99)"><tspan x="0" y="8" dx="0">«</tspan><tspan x="3.75" y="8" dx="0">R</tspan><tspan x="8" y="8" dx="0">e</tspan><tspan x="11.75" y="8" dx="0">l</tspan><tspan x="13.75" y="8" dx="0">a</tspan><tspan x="17.5" y="8" dx="0 0">ti</tspan><tspan x="22.25" y="8" dx="0">e</tspan><tspan x="26.25" y="8" dx="0">r</tspan><tspan x="29" y="8" dx="0">o</tspan><tspan x="33" y="8" dx="0">l</tspan><tspan x="35" y="8" dx="0">»</tspan></text><text stroke="none" fill="#595959" transform="translate(302 130)"><tspan x="0" y="8" dx="0">0..*</tspan></text><text stroke="none" fill="#595959" transform="translate(414 266)"><tspan x="0" y="8" dx="0">+kaartlagen</tspan></text><text stroke="none" fill="#595959" transform="translate(415 276)"><tspan x="0" y="8" dx="0">«</tspan><tspan x="3.75" y="8" dx="0">R</tspan><tspan x="8" y="8" dx="0">e</tspan><tspan x="11.75" y="8" dx="0">l</tspan><tspan x="13.75" y="8" dx="0">a</tspan><tspan x="17.5" y="8" dx="0 0">ti</tspan><tspan x="22.25" y="8" dx="0">e</tspan><tspan x="26.25" y="8" dx="0">r</tspan><tspan x="29" y="8" dx="0">o</tspan><tspan x="33" y="8" dx="0">l</tspan><tspan x="35" y="8" dx="0">»</tspan></text><text stroke="none" fill="#595959" transform="translate(426 290)"><tspan x="0" y="8" dx="0">1..*</tspan></text><text stroke="none" fill="#595959" transform="translate(461 500)"><tspan x="0" y="8" dx="0">+normweergave</tspan></text><text stroke="none" fill="#595959" transform="translate(477 510)"><tspan x="0" y="8" dx="0">«</tspan><tspan x="3.75" y="8" dx="0">R</tspan><tspan x="8" y="8" dx="0">e</tspan><tspan x="11.75" y="8" dx="0">l</tspan><tspan x="13.75" y="8" dx="0">a</tspan><tspan x="17.5" y="8" dx="0 0">ti</tspan><tspan x="22.25" y="8" dx="0">e</tspan><tspan x="26.25" y="8" dx="0">r</tspan><tspan x="29" y="8" dx="0">o</tspan><tspan x="33" y="8" dx="0">l</tspan><tspan x="35" y="8" dx="0">»</tspan></text><text stroke="none" fill="#595959" transform="translate(395 515)"><tspan x="0" y="8" dx="0">0..*</tspan></text><text stroke="none" fill="#595959" transform="translate(112 501)"><tspan x="0" y="8" dx="0">+gebiedsaanwijzingweergave</tspan></text><text stroke="none" fill="#595959" transform="translate(171 511)"><tspan x="0" y="8" dx="0">«</tspan><tspan x="3.75" y="8" dx="0">R</tspan><tspan x="8" y="8" dx="0">e</tspan><tspan x="11.75" y="8" dx="0">l</tspan><tspan x="13.75" y="8" dx="0">a</tspan><tspan x="17.5" y="8" dx="0 0">ti</tspan><tspan x="22.25" y="8" dx="0">e</tspan><tspan x="26.25" y="8" dx="0">r</tspan><tspan x="29" y="8" dx="0">o</tspan><tspan x="33" y="8" dx="0">l</tspan><tspan x="35" y="8" dx="0">»</tspan></text><text stroke="none" fill="#595959" transform="translate(239 525)"><tspan x="0" y="8" dx="0">0..*</tspan></text></g></g></g></g></svg>