<svg width="390.492" height="220.174" viewBox="45.0757 89.8631 292.869 165.13" xmlns="http://www.w3.org/2000/svg" xmlns:xlink="http://www.w3.org/1999/xlink" xml:space="preserve" overflow="hidden"><g transform="matrix(1 0 0 -1 0 841)"><g stroke="#000000" stroke-linecap="round" stroke-linejoin="round" stroke-miterlimit="3" fill="none" fill-rule="evenodd" font-weight="400" baseline-shift="0"><g transform="matrix(0.6 0 0 0.6 0 841.65)"><g font-family="CalibriUnicode" font-size="8" transform="scale(0.911954 -0.907119)"><rect x="258" y="184" width="196" height="89" stroke="none" fill="#D0D0D0"/><rect x="255" y="181" width="195" height="88" stroke="none" fill="#87CEFA"/><rect x="255" y="181" width="195" height="89" stroke="#9A8484"/><text stroke="none" fill="#595959" transform="translate(331 187)"><tspan x="0" y="8" dx="0">«</tspan><tspan x="4.25" y="8" dx="0">O</tspan><tspan x="9.75" y="8" dx="0">b</tspan><tspan x="14" y="8" dx="0">j</tspan><tspan x="16" y="8" dx="0">e</tspan><tspan x="20.25" y="8" dx="0">c</tspan><tspan x="23.5" y="8" dx="0 0">tt</tspan><tspan x="29" y="8" dx="0">y</tspan><tspan x="32.5" y="8" dx="0">p</tspan><tspan x="36.75" y="8" dx="0">e</tspan><tspan x="41" y="8" dx="0">»</tspan></text><text stroke="none" fill="#595959" font-style="italic" font-weight="700" transform="translate(337 197)"><tspan x="0" y="8" dx="0">OPobject</tspan></text><path d="M255 212 450 212" stroke="#9A8484"/><text stroke="none" fill="#595959" transform="translate(266 220)"><tspan x="0" y="8" dx="0">«</tspan><tspan x="3.75" y="8" dx="0">A</tspan><tspan x="8.5" y="8" dx="0 0">tt</tspan><tspan x="14" y="8" dx="0">r</tspan><tspan x="16.75" y="8" dx="0">i</tspan><tspan x="18.75" y="8" dx="0">b</tspan><tspan x="22.75" y="8" dx="0">u</tspan><tspan x="26.75" y="8" dx="0">u</tspan><tspan x="30.75" y="8" dx="0">t</tspan><tspan x="33.5" y="8" dx="0">s</tspan><tspan x="36.5" y="8" dx="0">o</tspan><tspan x="40.5" y="8" dx="0">o</tspan><tspan x="44.5" y="8" dx="0">r</tspan><tspan x="47.25" y="8" dx="0">t</tspan><tspan x="50" y="8" dx="0">»</tspan></text><text stroke="none" fill="#66413F" transform="translate(260 230)"><tspan x="0" y="8" dx="0">+ </tspan></text><text stroke="none" fill="#66413F" transform="translate(274 230)"><tspan x="0" y="8" dx="0">status: CharacterString [0..1]</tspan></text><text stroke="none" fill="#66413F" transform="translate(260 240)"><tspan x="0" y="8" dx="0">+ </tspan></text><text stroke="none" fill="#66413F" transform="translate(274 240)"><tspan x="0" y="8" dx="0">procedurestatus: CharacterString [0..1]</tspan></text><rect x="100" y="379" width="157" height="76" stroke="none" fill="#D0D0D0"/><rect x="97" y="376" width="156" height="75" stroke="none" fill="#87CEFA"/><rect x="97" y="376" width="156" height="76" stroke="#9A8484"/><text stroke="none" fill="#595959" transform="translate(153 382)"><tspan x="0" y="8" dx="0">«</tspan><tspan x="4.25" y="8" dx="0">O</tspan><tspan x="9.75" y="8" dx="0">b</tspan><tspan x="14" y="8" dx="0">j</tspan><tspan x="16" y="8" dx="0">e</tspan><tspan x="20.25" y="8" dx="0">c</tspan><tspan x="23.5" y="8" dx="0 0">tt</tspan><tspan x="29" y="8" dx="0">y</tspan><tspan x="32.5" y="8" dx="0">p</tspan><tspan x="36.75" y="8" dx="0">e</tspan><tspan x="41" y="8" dx="0">»</tspan></text><text stroke="none" fill="#595959" font-weight="700" transform="translate(157 392)"><tspan x="0" y="8" dx="0">Regeltekst</tspan></text><path d="M97 407 253 407" stroke="#9A8484"/><text stroke="none" fill="#595959" transform="translate(108 415)"><tspan x="0" y="8" dx="0">«</tspan><tspan x="3.75" y="8" dx="0">A</tspan><tspan x="8.5" y="8" dx="0 0">tt</tspan><tspan x="14" y="8" dx="0">r</tspan><tspan x="16.75" y="8" dx="0">i</tspan><tspan x="18.75" y="8" dx="0">b</tspan><tspan x="22.75" y="8" dx="0">u</tspan><tspan x="26.75" y="8" dx="0">u</tspan><tspan x="30.75" y="8" dx="0">t</tspan><tspan x="33.5" y="8" dx="0">s</tspan><tspan x="36.5" y="8" dx="0">o</tspan><tspan x="40.5" y="8" dx="0">o</tspan><tspan x="44.5" y="8" dx="0">r</tspan><tspan x="47.25" y="8" dx="0">t</tspan><tspan x="50" y="8" dx="0">»</tspan></text><text stroke="none" fill="#66413F" transform="translate(102 425)"><tspan x="0" y="8" dx="0">+ </tspan></text><text stroke="none" fill="#66413F" transform="translate(116 425)"><tspan x="0" y="8" dx="0">i</tspan><tspan x="2" y="8" dx="0">d</tspan><tspan x="5.75" y="8" dx="0">e</tspan><tspan x="9.5" y="8" dx="0">n</tspan><tspan x="13.5" y="8" dx="0 0">ti</tspan><tspan x="18.25" y="8" dx="0 0">fi</tspan><tspan x="22.75" y="8" dx="0">c</tspan><tspan x="26" y="8" dx="0">a</tspan><tspan x="29.75" y="8" dx="0 0">ti</tspan><tspan x="34.5" y="8" dx="0">e</tspan><tspan x="38.5" y="8" dx="0">:</tspan><tspan x="40.75" y="8" dx="0"> </tspan><tspan x="42.75" y="8" dx="0">N</tspan><tspan x="48" y="8" dx="0">E</tspan><tspan x="51.75" y="8" dx="0">N</tspan><tspan x="57" y="8" dx="0">3</tspan><tspan x="61" y="8" dx="0">6</tspan><tspan x="65" y="8" dx="0">1</tspan><tspan x="69" y="8" dx="0">0</tspan><tspan x="73" y="8" dx="0">I</tspan><tspan x="75" y="8" dx="0">D</tspan><tspan x="80" y="8" dx="0"> </tspan><tspan x="82" y="8" dx="0">{</tspan><tspan x="84.5" y="8" dx="0">i</tspan><tspan x="86.5" y="8" dx="0">d</tspan><tspan x="90.5" y="8" dx="0">}</tspan></text><rect x="281" y="379" width="151" height="76" stroke="none" fill="#D0D0D0"/><rect x="278" y="376" width="150" height="75" stroke="none" fill="#87CEFA"/><rect x="278" y="376" width="150" height="76" stroke="#9A8484"/><text stroke="none" fill="#595959" transform="translate(331 382)"><tspan x="0" y="8" dx="0">«</tspan><tspan x="4.25" y="8" dx="0">O</tspan><tspan x="9.75" y="8" dx="0">b</tspan><tspan x="14" y="8" dx="0">j</tspan><tspan x="16" y="8" dx="0">e</tspan><tspan x="20.25" y="8" dx="0">c</tspan><tspan x="23.5" y="8" dx="0 0">tt</tspan><tspan x="29" y="8" dx="0">y</tspan><tspan x="32.5" y="8" dx="0">p</tspan><tspan x="36.75" y="8" dx="0">e</tspan><tspan x="41" y="8" dx="0">»</tspan></text><text stroke="none" fill="#595959" font-weight="700" transform="translate(342 392)"><tspan x="0" y="8" dx="0">Divisie</tspan></text><path d="M278 407 428 407" stroke="#9A8484"/><text stroke="none" fill="#595959" transform="translate(289 415)"><tspan x="0" y="8" dx="0">«</tspan><tspan x="3.75" y="8" dx="0">A</tspan><tspan x="8.5" y="8" dx="0 0">tt</tspan><tspan x="14" y="8" dx="0">r</tspan><tspan x="16.75" y="8" dx="0">i</tspan><tspan x="18.75" y="8" dx="0">b</tspan><tspan x="22.75" y="8" dx="0">u</tspan><tspan x="26.75" y="8" dx="0">u</tspan><tspan x="30.75" y="8" dx="0">t</tspan><tspan x="33.5" y="8" dx="0">s</tspan><tspan x="36.5" y="8" dx="0">o</tspan><tspan x="40.5" y="8" dx="0">o</tspan><tspan x="44.5" y="8" dx="0">r</tspan><tspan x="47.25" y="8" dx="0">t</tspan><tspan x="50" y="8" dx="0">»</tspan></text><text stroke="none" fill="#66413F" transform="translate(283 425)"><tspan x="0" y="8" dx="0">+ </tspan></text><text stroke="none" fill="#66413F" transform="translate(297 425)"><tspan x="0" y="8" dx="0">i</tspan><tspan x="2" y="8" dx="0">d</tspan><tspan x="5.75" y="8" dx="0">e</tspan><tspan x="9.5" y="8" dx="0">n</tspan><tspan x="13.5" y="8" dx="0 0">ti</tspan><tspan x="18.25" y="8" dx="0 0">fi</tspan><tspan x="22.75" y="8" dx="0">c</tspan><tspan x="26" y="8" dx="0">a</tspan><tspan x="29.75" y="8" dx="0 0">ti</tspan><tspan x="34.5" y="8" dx="0">e</tspan><tspan x="38.5" y="8" dx="0">:</tspan><tspan x="40.75" y="8" dx="0"> </tspan><tspan x="42.75" y="8" dx="0">N</tspan><tspan x="48" y="8" dx="0">E</tspan><tspan x="51.75" y="8" dx="0">N</tspan><tspan x="57" y="8" dx="0">3</tspan><tspan x="61" y="8" dx="0">6</tspan><tspan x="65" y="8" dx="0">1</tspan><tspan x="69" y="8" dx="0">0</tspan><tspan x="73" y="8" dx="0">I</tspan><tspan x="75" y="8" dx="0">D</tspan><tspan x="80" y="8" dx="0"> </tspan><tspan x="82" y="8" dx="0">{</tspan><tspan x="84.5" y="8" dx="0">i</tspan><tspan x="86.5" y="8" dx="0">d</tspan><tspan x="90.5" y="8" dx="0">}</tspan></text><rect x="456" y="379" width="147" height="76" stroke="none" fill="#D0D0D0"/><rect x="453" y="376" width="146" height="75" stroke="none" fill="#87CEFA"/><rect x="453" y="376" width="146" height="76" stroke="#9A8484"/><text stroke="none" fill="#595959" transform="translate(504 382)"><tspan x="0" y="8" dx="0">«</tspan><tspan x="4.25" y="8" dx="0">O</tspan><tspan x="9.75" y="8" dx="0">b</tspan><tspan x="14" y="8" dx="0">j</tspan><tspan x="16" y="8" dx="0">e</tspan><tspan x="20.25" y="8" dx="0">c</tspan><tspan x="23.5" y="8" dx="0 0">tt</tspan><tspan x="29" y="8" dx="0">y</tspan><tspan x="32.5" y="8" dx="0">p</tspan><tspan x="36.75" y="8" dx="0">e</tspan><tspan x="41" y="8" dx="0">»</tspan></text><text stroke="none" fill="#595959" font-weight="700" transform="translate(507 392)"><tspan x="0" y="8" dx="0">Divisietekst</tspan></text><path d="M453 407 599 407" stroke="#9A8484"/><text stroke="none" fill="#595959" transform="translate(464 415)"><tspan x="0" y="8" dx="0">«</tspan><tspan x="3.75" y="8" dx="0">A</tspan><tspan x="8.5" y="8" dx="0 0">tt</tspan><tspan x="14" y="8" dx="0">r</tspan><tspan x="16.75" y="8" dx="0">i</tspan><tspan x="18.75" y="8" dx="0">b</tspan><tspan x="22.75" y="8" dx="0">u</tspan><tspan x="26.75" y="8" dx="0">u</tspan><tspan x="30.75" y="8" dx="0">t</tspan><tspan x="33.5" y="8" dx="0">s</tspan><tspan x="36.5" y="8" dx="0">o</tspan><tspan x="40.5" y="8" dx="0">o</tspan><tspan x="44.5" y="8" dx="0">r</tspan><tspan x="47.25" y="8" dx="0">t</tspan><tspan x="50" y="8" dx="0">»</tspan></text><text stroke="none" fill="#66413F" transform="translate(458 425)"><tspan x="0" y="8" dx="0">+ </tspan></text><text stroke="none" fill="#66413F" transform="translate(472 425)"><tspan x="0" y="8" dx="0">i</tspan><tspan x="2" y="8" dx="0">d</tspan><tspan x="5.75" y="8" dx="0">e</tspan><tspan x="9.5" y="8" dx="0">n</tspan><tspan x="13.5" y="8" dx="0 0">ti</tspan><tspan x="18.25" y="8" dx="0 0">fi</tspan><tspan x="22.75" y="8" dx="0">c</tspan><tspan x="26" y="8" dx="0">a</tspan><tspan x="29.75" y="8" dx="0 0">ti</tspan><tspan x="34.5" y="8" dx="0">e</tspan><tspan x="38.5" y="8" dx="0">:</tspan><tspan x="40.75" y="8" dx="0"> </tspan><tspan x="42.75" y="8" dx="0">N</tspan><tspan x="48" y="8" dx="0">E</tspan><tspan x="51.75" y="8" dx="0">N</tspan><tspan x="57" y="8" dx="0">3</tspan><tspan x="61" y="8" dx="0">6</tspan><tspan x="65" y="8" dx="0">1</tspan><tspan x="69" y="8" dx="0">0</tspan><tspan x="73" y="8" dx="0">I</tspan><tspan x="75" y="8" dx="0">D</tspan><tspan x="80" y="8" dx="0"> </tspan><tspan x="82" y="8" dx="0">{</tspan><tspan x="84.5" y="8" dx="0">i</tspan><tspan x="86.5" y="8" dx="0">d</tspan><tspan x="90.5" y="8" dx="0">}</tspan></text><path d="M352 376 352 320M353 320 353 270" stroke="#69738C"/><path d="M359 286 347 286 353 270 359 286" stroke="#69738C" fill="#FCF2E3"/><path d="M174 376 174 320M174 320 353 320" stroke="#69738C"/><path d="M526 376 526 320M526 320 353 320" stroke="#69738C"/></g></g></g></g></svg>