<svg width="391.952" height="178.084" viewBox="14.9812 24.0063 293.964 133.563" xmlns="http://www.w3.org/2000/svg" xmlns:xlink="http://www.w3.org/1999/xlink" xml:space="preserve" overflow="hidden"><g transform="matrix(1 0 0 -1 0 841)"><g stroke="#000000" stroke-linecap="round" stroke-linejoin="round" stroke-miterlimit="3" fill="none" fill-rule="evenodd" font-weight="400" baseline-shift="0"><g transform="matrix(0.6 0 0 0.6 0 841.65)"><g font-family="CalibriUnicode" font-size="13" transform="scale(0.911954 -0.907119)"><rect x="129" y="144" width="188" height="132" stroke="none" fill="#D0D0D0"/><rect x="126" y="141" width="187" height="131" stroke="none" stroke-width="2" fill="#CCFFCC"/><rect x="126" y="141" width="187" height="132" stroke="#9A8484" stroke-width="2"/><text stroke="none" fill="#000000" font-style="italic" transform="translate(258 144)"><tspan x="0" y="12" dx="0">OWobject</tspan></text><text stroke="none" fill="#000000" transform="translate(183 165)"><tspan x="0" y="12" dx="0">«</tspan><tspan x="7" y="12" dx="0">O</tspan><tspan x="16" y="12" dx="0">b</tspan><tspan x="23" y="12" dx="0">j</tspan><tspan x="26" y="12" dx="0">e</tspan><tspan x="33" y="12" dx="0">c</tspan><tspan x="38" y="12" dx="0 0">tt</tspan><tspan x="47" y="12" dx="0">y</tspan><tspan x="53" y="12" dx="0">p</tspan><tspan x="59" y="12" dx="0">e</tspan><tspan x="66" y="12" dx="0">»</tspan></text><text stroke="none" fill="#000000" font-weight="700" transform="translate(193 180)"><tspan x="0" y="12" dx="0">A</tspan><tspan x="8" y="12" dx="0">c</tspan><tspan x="14" y="12" dx="0 0">ti</tspan><tspan x="23" y="12" dx="0">v</tspan><tspan x="29" y="12" dx="0">i</tspan><tspan x="33" y="12" dx="0">t</tspan><tspan x="38" y="12" dx="0">e</tspan><tspan x="44" y="12" dx="0">i</tspan><tspan x="48" y="12" dx="0">t</tspan></text><path d="M126 200 313 200" stroke="#9A8484" stroke-width="2"/><text stroke="none" fill="#000000" transform="translate(139 208)"><tspan x="0" y="12" dx="0">«</tspan><tspan x="7" y="12" dx="0">A</tspan><tspan x="14" y="12" dx="0 0">tt</tspan><tspan x="23" y="12" dx="0">r</tspan><tspan x="27" y="12" dx="0">i</tspan><tspan x="30" y="12" dx="0">b</tspan><tspan x="37" y="12" dx="0">u</tspan><tspan x="43" y="12" dx="0">u</tspan><tspan x="50" y="12" dx="0">t</tspan><tspan x="54" y="12" dx="0">s</tspan><tspan x="60" y="12" dx="0">o</tspan><tspan x="67" y="12" dx="0">o</tspan><tspan x="73" y="12" dx="0">r</tspan><tspan x="78" y="12" dx="0">t</tspan><tspan x="82" y="12" dx="0">»</tspan></text><text stroke="none" fill="#66413F" transform="translate(131 223)"><tspan x="0" y="12" dx="0">+ </tspan></text><text stroke="none" fill="#66413F" transform="translate(152 223)"><tspan x="0" y="12" dx="0">i</tspan><tspan x="3" y="12" dx="0">d</tspan><tspan x="10" y="12" dx="0">e</tspan><tspan x="17" y="12" dx="0">n</tspan><tspan x="23" y="12" dx="0 0">ti</tspan><tspan x="31" y="12" dx="0 0">fi</tspan><tspan x="38" y="12" dx="0">c</tspan><tspan x="44" y="12" dx="0">a</tspan><tspan x="51" y="12" dx="0 0">ti</tspan><tspan x="58" y="12" dx="0">e</tspan><tspan x="65" y="12" dx="0">:</tspan><tspan x="68" y="12" dx="0"> </tspan><tspan x="72" y="12" dx="0">N</tspan><tspan x="80" y="12" dx="0">E</tspan><tspan x="87" y="12" dx="0">N</tspan><tspan x="95" y="12" dx="0">3</tspan><tspan x="102" y="12" dx="0">6</tspan><tspan x="108" y="12" dx="0">1</tspan><tspan x="115" y="12" dx="0">0</tspan><tspan x="122" y="12" dx="0">I</tspan><tspan x="125" y="12" dx="0">D</tspan><tspan x="133" y="12" dx="0"> </tspan><tspan x="137" y="12" dx="0">{</tspan><tspan x="141" y="12" dx="0">i</tspan><tspan x="144" y="12" dx="0">d</tspan><tspan x="151" y="12" dx="0">}</tspan></text><text stroke="none" fill="#66413F" transform="translate(131 238)"><tspan x="0" y="12" dx="0">+ </tspan></text><text stroke="none" fill="#66413F" transform="translate(152 238)"><tspan x="0" y="12" dx="0">naam: CharacterString</tspan></text><text stroke="none" fill="#66413F" transform="translate(131 253)"><tspan x="0" y="12" dx="0">+ </tspan></text><text stroke="none" fill="#66413F" transform="translate(152 253)"><tspan x="0" y="12" dx="0">g</tspan><tspan x="7" y="12" dx="0">r</tspan><tspan x="11" y="12" dx="0">o</tspan><tspan x="18" y="12" dx="0">e</tspan><tspan x="24" y="12" dx="0">p</tspan><tspan x="31" y="12" dx="0">:</tspan><tspan x="34" y="12" dx="0"> </tspan><tspan x="38" y="12" dx="0">A</tspan><tspan x="45" y="12" dx="0">c</tspan><tspan x="51" y="12" dx="0 0">ti</tspan><tspan x="58" y="12" dx="0">v</tspan><tspan x="64" y="12" dx="0">i</tspan><tspan x="68" y="12" dx="0">t</tspan><tspan x="72" y="12" dx="0">e</tspan><tspan x="78" y="12" dx="0">i</tspan><tspan x="82" y="12" dx="0">t</tspan><tspan x="86" y="12" dx="0">e</tspan><tspan x="93" y="12" dx="0">n</tspan><tspan x="99" y="12" dx="0">g</tspan><tspan x="106" y="12" dx="0">r</tspan><tspan x="110" y="12" dx="0">o</tspan><tspan x="117" y="12" dx="0">e</tspan><tspan x="123" y="12" dx="0">p</tspan></text><path d="M314 234 418 234M418 234 418 167M418 167 314 167M314 167 329 161M314 167 329 173" stroke="#69738C"/><path d="M230 141 230 80M230 80 154 80M154 80 154 141M154 141 148 126M154 141 160 126" stroke="#69738C"/><text stroke="none" fill="#595959" font-size="10" transform="translate(159 60)"><tspan x="0" y="10" dx="0">«</tspan><tspan x="6" y="10" dx="0">R</tspan><tspan x="12.5" y="10" dx="0">e</tspan><tspan x="18.5" y="10" dx="0">l</tspan><tspan x="21" y="10" dx="0">a</tspan><tspan x="27" y="10" dx="0 0">ti</tspan><tspan x="33.5" y="10" dx="0">e</tspan><tspan x="39.5" y="10" dx="0">s</tspan><tspan x="44" y="10" dx="0">o</tspan><tspan x="50.5" y="10" dx="0">o</tspan><tspan x="57" y="10" dx="0">r</tspan><tspan x="60.5" y="10" dx="0">t</tspan><tspan x="64" y="10" dx="0">»</tspan><tspan x="69.5" y="10" dx="0"> </tspan><tspan x="72" y="10" dx="0">i</tspan><tspan x="74" y="10" dx="0">s</tspan></text><text stroke="none" fill="#595959" font-size="10" transform="translate(42 104)"><tspan x="0" y="10" dx="0">+</tspan><tspan x="6" y="10" dx="0">b</tspan><tspan x="12.5" y="10" dx="0">o</tspan><tspan x="19" y="10" dx="0">v</tspan><tspan x="24.5" y="10" dx="0">e</tspan><tspan x="30.5" y="10" dx="0">n</tspan><tspan x="36.5" y="10" dx="0">l</tspan><tspan x="38.5" y="10" dx="0">i</tspan><tspan x="40.5" y="10" dx="0">g</tspan><tspan x="46" y="10" dx="0">g</tspan><tspan x="51.5" y="10" dx="0">e</tspan><tspan x="57" y="10" dx="0">n</tspan><tspan x="63" y="10" dx="0">d</tspan><tspan x="69" y="10" dx="0">e</tspan><tspan x="74.5" y="10" dx="0">A</tspan><tspan x="81" y="10" dx="0">c</tspan><tspan x="86" y="10" dx="0 0">ti</tspan><tspan x="91.5" y="10" dx="0">v</tspan><tspan x="96.5" y="10" dx="0">i</tspan><tspan x="98.5" y="10" dx="0">t</tspan><tspan x="102" y="10" dx="0">e</tspan><tspan x="107.5" y="10" dx="0">i</tspan><tspan x="109.5" y="10" dx="0">t</tspan></text><text stroke="none" fill="#595959" font-size="10" transform="translate(60 117)"><tspan x="0" y="10" dx="0">«</tspan><tspan x="6" y="10" dx="0">R</tspan><tspan x="12.5" y="10" dx="0">e</tspan><tspan x="18.5" y="10" dx="0">l</tspan><tspan x="21" y="10" dx="0">a</tspan><tspan x="27" y="10" dx="0 0">ti</tspan><tspan x="32.5" y="10" dx="0">e</tspan><tspan x="38" y="10" dx="0">r</tspan><tspan x="41.5" y="10" dx="0">o</tspan><tspan x="47.5" y="10" dx="0">l</tspan><tspan x="49.5" y="10" dx="0">»</tspan><tspan x="55" y="10" dx="0"> </tspan><tspan x="57.5" y="10" dx="0">1</tspan></text><text stroke="none" fill="#595959" font-size="10" transform="translate(328 245)"><tspan x="0" y="10" dx="0">1</tspan></text><text stroke="none" fill="#595959" font-size="10" transform="translate(428 195)"><tspan x="0" y="10" dx="0">«</tspan><tspan x="6" y="10" dx="0">R</tspan><tspan x="12.5" y="10" dx="0">e</tspan><tspan x="18.5" y="10" dx="0">l</tspan><tspan x="21" y="10" dx="0">a</tspan><tspan x="27" y="10" dx="0 0">ti</tspan><tspan x="33.5" y="10" dx="0">e</tspan><tspan x="39.5" y="10" dx="0">s</tspan><tspan x="44" y="10" dx="0">o</tspan><tspan x="50.5" y="10" dx="0">o</tspan><tspan x="56.5" y="10" dx="0">r</tspan><tspan x="60" y="10" dx="0">t</tspan><tspan x="63.5" y="10" dx="0">»</tspan><tspan x="69" y="10" dx="0"> </tspan><tspan x="71.5" y="10" dx="0">g</tspan><tspan x="77" y="10" dx="0">e</tspan><tspan x="82.5" y="10" dx="0">r</tspan><tspan x="86" y="10" dx="0">e</tspan><tspan x="91.5" y="10" dx="0">l</tspan><tspan x="93.5" y="10" dx="0">a</tspan><tspan x="99" y="10" dx="0">t</tspan><tspan x="102.5" y="10" dx="0">e</tspan><tspan x="108" y="10" dx="0">e</tspan><tspan x="113.5" y="10" dx="0">r</tspan><tspan x="117" y="10" dx="0">d</tspan></text><text stroke="none" fill="#595959" font-size="10" transform="translate(329 127)"><tspan x="0" y="10" dx="0">+</tspan><tspan x="6" y="10" dx="0">g</tspan><tspan x="12" y="10" dx="0">e</tspan><tspan x="18" y="10" dx="0">r</tspan><tspan x="22" y="10" dx="0">e</tspan><tspan x="28" y="10" dx="0">l</tspan><tspan x="30.5" y="10" dx="0">a</tspan><tspan x="36" y="10" dx="0">t</tspan><tspan x="39.5" y="10" dx="0">e</tspan><tspan x="45" y="10" dx="0">e</tspan><tspan x="50.5" y="10" dx="0">r</tspan><tspan x="54" y="10" dx="0">d</tspan><tspan x="60" y="10" dx="0">e</tspan><tspan x="65.5" y="10" dx="0">A</tspan><tspan x="72" y="10" dx="0">c</tspan><tspan x="77" y="10" dx="0 0">ti</tspan><tspan x="82.5" y="10" dx="0">v</tspan><tspan x="87.5" y="10" dx="0">i</tspan><tspan x="89.5" y="10" dx="0">t</tspan><tspan x="93" y="10" dx="0">e</tspan><tspan x="98.5" y="10" dx="0">i</tspan><tspan x="100.5" y="10" dx="0">t</tspan></text><text stroke="none" fill="#595959" font-size="10" transform="translate(338 140)"><tspan x="0" y="10" dx="0">«</tspan><tspan x="6" y="10" dx="0">R</tspan><tspan x="12.5" y="10" dx="0">e</tspan><tspan x="18.5" y="10" dx="0">l</tspan><tspan x="21" y="10" dx="0">a</tspan><tspan x="26.5" y="10" dx="0 0">ti</tspan><tspan x="32" y="10" dx="0">e</tspan><tspan x="37.5" y="10" dx="0">r</tspan><tspan x="41" y="10" dx="0">o</tspan><tspan x="47" y="10" dx="0">l</tspan><tspan x="49" y="10" dx="0">»</tspan><tspan x="54.5" y="10" dx="0"> </tspan><tspan x="57" y="10" dx="0">0</tspan><tspan x="62.5" y="10" dx="0">.</tspan><tspan x="65" y="10" dx="0">.</tspan><tspan x="67.5" y="10" dx="0">*</tspan></text></g></g></g></g></svg>