<svg width="589.051" height="310.322" viewBox="26.9813 35.3662 441.788 232.742" xmlns="http://www.w3.org/2000/svg" xmlns:xlink="http://www.w3.org/1999/xlink" xml:space="preserve" overflow="hidden"><g transform="matrix(1 0 0 -1 0 768)"><g stroke="#000000" stroke-linecap="round" stroke-linejoin="round" stroke-miterlimit="3" fill="none" fill-rule="evenodd" font-weight="400" baseline-shift="0"><g transform="matrix(0.6 0 0 0.6 0 768.2)"><g font-family="CalibriUnicode" font-size="13" transform="scale(0.910972 -0.907629)"><rect x="395" y="83" width="244" height="99" stroke="none" fill="#D0D0D0"/><rect x="392" y="80" width="243" height="98" stroke="none" stroke-width="2" fill="#CCFFCC"/><rect x="392" y="80" width="243" height="99" stroke="#9A8484" stroke-width="2"/><text stroke="none" fill="#595959" transform="translate(477 86)"><tspan x="0" y="12" dx="0">«</tspan><tspan x="7" y="12" dx="0">O</tspan><tspan x="16" y="12" dx="0">b</tspan><tspan x="23" y="12" dx="0">j</tspan><tspan x="26" y="12" dx="0">e</tspan><tspan x="33" y="12" dx="0">c</tspan><tspan x="38" y="12" dx="0 0">tt</tspan><tspan x="47" y="12" dx="0">y</tspan><tspan x="53" y="12" dx="0">p</tspan><tspan x="59" y="12" dx="0">e</tspan><tspan x="66" y="12" dx="0">»</tspan></text><text stroke="none" fill="#595959" font-style="italic" font-weight="700" transform="translate(486 101)"><tspan x="0" y="12" dx="0">OWobject</tspan></text><path d="M392 121 635 121" stroke="#9A8484" stroke-width="2"/><text stroke="none" fill="#595959" transform="translate(405 129)"><tspan x="0" y="12" dx="0">«</tspan><tspan x="7" y="12" dx="0">A</tspan><tspan x="14" y="12" dx="0 0">tt</tspan><tspan x="23" y="12" dx="0">r</tspan><tspan x="27" y="12" dx="0">i</tspan><tspan x="30" y="12" dx="0">b</tspan><tspan x="37" y="12" dx="0">u</tspan><tspan x="43" y="12" dx="0">u</tspan><tspan x="50" y="12" dx="0">t</tspan><tspan x="54" y="12" dx="0">s</tspan><tspan x="60" y="12" dx="0">o</tspan><tspan x="67" y="12" dx="0">o</tspan><tspan x="73" y="12" dx="0">r</tspan><tspan x="78" y="12" dx="0">t</tspan><tspan x="82" y="12" dx="0">»</tspan></text><text stroke="none" fill="#66413F" transform="translate(397 144)"><tspan x="0" y="12" dx="0">+ </tspan></text><text stroke="none" fill="#66413F" transform="translate(418 144)"><tspan x="0" y="12" dx="0">status: CharacterString [0..1]</tspan></text><text stroke="none" fill="#66413F" transform="translate(397 159)"><tspan x="0" y="12" dx="0">+ </tspan></text><text stroke="none" fill="#66413F" transform="translate(418 159)"><tspan x="0" y="12" dx="0">procedurestatus: CharacterString [0..1]</tspan></text><rect x="115" y="276" width="132" height="46" stroke="none" fill="#D0D0D0"/><rect x="112" y="273" width="131" height="45" stroke="none" fill="#CCFFCC"/><rect x="112" y="273" width="131" height="46" stroke="#9A8484"/><text stroke="none" fill="#595959" transform="translate(141 279)"><tspan x="0" y="12" dx="0">«</tspan><tspan x="7" y="12" dx="0">O</tspan><tspan x="16" y="12" dx="0">b</tspan><tspan x="23" y="12" dx="0">j</tspan><tspan x="26" y="12" dx="0">e</tspan><tspan x="33" y="12" dx="0">c</tspan><tspan x="38" y="12" dx="0 0">tt</tspan><tspan x="47" y="12" dx="0">y</tspan><tspan x="53" y="12" dx="0">p</tspan><tspan x="59" y="12" dx="0">e</tspan><tspan x="66" y="12" dx="0">»</tspan></text><text stroke="none" fill="#595959" font-style="italic" font-weight="700" transform="translate(136 294)"><tspan x="0" y="12" dx="0">JuridischeRegel</tspan></text><rect x="522" y="276" width="132" height="46" stroke="none" fill="#D0D0D0"/><rect x="519" y="273" width="131" height="45" stroke="none" fill="#CCFFCC"/><rect x="519" y="273" width="131" height="46" stroke="#9A8484"/><text stroke="none" fill="#595959" transform="translate(548 279)"><tspan x="0" y="12" dx="0">«</tspan><tspan x="7" y="12" dx="0">O</tspan><tspan x="16" y="12" dx="0">b</tspan><tspan x="23" y="12" dx="0">j</tspan><tspan x="26" y="12" dx="0">e</tspan><tspan x="33" y="12" dx="0">c</tspan><tspan x="38" y="12" dx="0 0">tt</tspan><tspan x="47" y="12" dx="0">y</tspan><tspan x="53" y="12" dx="0">p</tspan><tspan x="59" y="12" dx="0">e</tspan><tspan x="66" y="12" dx="0">»</tspan></text><text stroke="none" fill="#595959" font-weight="700" transform="translate(558 294)"><tspan x="0" y="12" dx="0">A</tspan><tspan x="8" y="12" dx="0">c</tspan><tspan x="14" y="12" dx="0 0">ti</tspan><tspan x="23" y="12" dx="0">v</tspan><tspan x="29" y="12" dx="0">i</tspan><tspan x="33" y="12" dx="0">t</tspan><tspan x="38" y="12" dx="0">e</tspan><tspan x="44" y="12" dx="0">i</tspan><tspan x="48" y="12" dx="0">t</tspan></text><rect x="67" y="432" width="132" height="46" stroke="none" fill="#D0D0D0"/><rect x="64" y="429" width="131" height="45" stroke="none" fill="#CCFFCC"/><rect x="64" y="429" width="131" height="46" stroke="#9A8484"/><text stroke="none" fill="#595959" transform="translate(93 435)"><tspan x="0" y="12" dx="0">«</tspan><tspan x="7" y="12" dx="0">O</tspan><tspan x="16" y="12" dx="0">b</tspan><tspan x="23" y="12" dx="0">j</tspan><tspan x="26" y="12" dx="0">e</tspan><tspan x="33" y="12" dx="0">c</tspan><tspan x="38" y="12" dx="0 0">tt</tspan><tspan x="47" y="12" dx="0">y</tspan><tspan x="53" y="12" dx="0">p</tspan><tspan x="59" y="12" dx="0">e</tspan><tspan x="66" y="12" dx="0">»</tspan></text><text stroke="none" fill="#595959" font-weight="700" transform="translate(114 450)"><tspan x="0" y="12" dx="0">Kaart</tspan></text><rect x="88" y="352" width="132" height="46" stroke="none" fill="#D0D0D0"/><rect x="85" y="349" width="131" height="45" stroke="none" fill="#CCFFCC"/><rect x="85" y="349" width="131" height="46" stroke="#9A8484"/><text stroke="none" fill="#595959" transform="translate(114 355)"><tspan x="0" y="12" dx="0">«</tspan><tspan x="7" y="12" dx="0">O</tspan><tspan x="16" y="12" dx="0">b</tspan><tspan x="23" y="12" dx="0">j</tspan><tspan x="26" y="12" dx="0">e</tspan><tspan x="33" y="12" dx="0">c</tspan><tspan x="38" y="12" dx="0 0">tt</tspan><tspan x="47" y="12" dx="0">y</tspan><tspan x="53" y="12" dx="0">p</tspan><tspan x="59" y="12" dx="0">e</tspan><tspan x="66" y="12" dx="0">»</tspan></text><text stroke="none" fill="#595959" font-weight="700" transform="translate(124 370)"><tspan x="0" y="12" dx="0">Hoofdlijn</tspan></text><rect x="281" y="352" width="132" height="46" stroke="none" fill="#D0D0D0"/><rect x="278" y="349" width="131" height="45" stroke="none" fill="#CCFFCC"/><rect x="278" y="349" width="131" height="46" stroke="#9A8484"/><text stroke="none" fill="#595959" transform="translate(307 355)"><tspan x="0" y="12" dx="0">«</tspan><tspan x="7" y="12" dx="0">O</tspan><tspan x="16" y="12" dx="0">b</tspan><tspan x="23" y="12" dx="0">j</tspan><tspan x="26" y="12" dx="0">e</tspan><tspan x="33" y="12" dx="0">c</tspan><tspan x="38" y="12" dx="0 0">tt</tspan><tspan x="47" y="12" dx="0">y</tspan><tspan x="53" y="12" dx="0">p</tspan><tspan x="59" y="12" dx="0">e</tspan><tspan x="66" y="12" dx="0">»</tspan></text><text stroke="none" fill="#595959" font-weight="700" transform="translate(317 370)"><tspan x="0" y="12" dx="0">Tekstdeel</tspan></text><rect x="495" y="352" width="132" height="46" stroke="none" fill="#D0D0D0"/><rect x="492" y="349" width="131" height="45" stroke="none" fill="#CCFFCC"/><rect x="492" y="349" width="131" height="46" stroke="#9A8484"/><text stroke="none" fill="#595959" transform="translate(521 355)"><tspan x="0" y="12" dx="0">«</tspan><tspan x="7" y="12" dx="0">O</tspan><tspan x="16" y="12" dx="0">b</tspan><tspan x="23" y="12" dx="0">j</tspan><tspan x="26" y="12" dx="0">e</tspan><tspan x="33" y="12" dx="0">c</tspan><tspan x="38" y="12" dx="0 0">tt</tspan><tspan x="47" y="12" dx="0">y</tspan><tspan x="53" y="12" dx="0">p</tspan><tspan x="59" y="12" dx="0">e</tspan><tspan x="66" y="12" dx="0">»</tspan></text><text stroke="none" fill="#595959" font-style="italic" font-weight="700" transform="translate(538 370)"><tspan x="0" y="12" dx="0">L</tspan><tspan x="6" y="12" dx="0">o</tspan><tspan x="13" y="12" dx="0">c</tspan><tspan x="18" y="12" dx="0">a</tspan><tspan x="25" y="12" dx="0 0">ti</tspan><tspan x="33" y="12" dx="0">e</tspan></text><rect x="263" y="432" width="132" height="46" stroke="none" fill="#D0D0D0"/><rect x="260" y="429" width="131" height="45" stroke="none" fill="#CCFFCC"/><rect x="260" y="429" width="131" height="46" stroke="#9A8484"/><text stroke="none" fill="#000000" transform="translate(289 435)"><tspan x="0" y="12" dx="0">«</tspan><tspan x="7" y="12" dx="0">O</tspan><tspan x="16" y="12" dx="0">b</tspan><tspan x="23" y="12" dx="0">j</tspan><tspan x="26" y="12" dx="0">e</tspan><tspan x="33" y="12" dx="0">c</tspan><tspan x="38" y="12" dx="0 0">tt</tspan><tspan x="47" y="12" dx="0">y</tspan><tspan x="53" y="12" dx="0">p</tspan><tspan x="59" y="12" dx="0">e</tspan><tspan x="66" y="12" dx="0">»</tspan></text><text stroke="none" fill="#000000" font-style="italic" font-weight="700" transform="translate(310 450)"><tspan x="0" y="12" dx="0">Norm</tspan></text><rect x="711" y="280" width="132" height="46" stroke="none" fill="#D0D0D0"/><rect x="708" y="277" width="131" height="45" stroke="none" fill="#CCFFCC"/><rect x="708" y="277" width="131" height="46" stroke="#9A8484"/><text stroke="none" fill="#000000" transform="translate(737 283)"><tspan x="0" y="12" dx="0">«</tspan><tspan x="7" y="12" dx="0">O</tspan><tspan x="16" y="12" dx="0">b</tspan><tspan x="23" y="12" dx="0">j</tspan><tspan x="26" y="12" dx="0">e</tspan><tspan x="33" y="12" dx="0">c</tspan><tspan x="38" y="12" dx="0 0">tt</tspan><tspan x="47" y="12" dx="0">y</tspan><tspan x="53" y="12" dx="0">p</tspan><tspan x="59" y="12" dx="0">e</tspan><tspan x="66" y="12" dx="0">»</tspan></text><text stroke="none" fill="#000000" font-weight="700" transform="translate(721 298)"><tspan x="0" y="12" dx="0">Gebiedsaanwijzing</tspan></text><rect x="682" y="352" width="132" height="46" stroke="none" fill="#D0D0D0"/><rect x="679" y="349" width="131" height="45" stroke="none" fill="#CCFFCC"/><rect x="679" y="349" width="131" height="46" stroke="#9A8484"/><text stroke="none" fill="#595959" transform="translate(708 355)"><tspan x="0" y="12" dx="0">«</tspan><tspan x="7" y="12" dx="0">O</tspan><tspan x="16" y="12" dx="0">b</tspan><tspan x="23" y="12" dx="0">j</tspan><tspan x="26" y="12" dx="0">e</tspan><tspan x="33" y="12" dx="0">c</tspan><tspan x="38" y="12" dx="0 0">tt</tspan><tspan x="47" y="12" dx="0">y</tspan><tspan x="53" y="12" dx="0">p</tspan><tspan x="59" y="12" dx="0">e</tspan><tspan x="66" y="12" dx="0">»</tspan></text><text stroke="none" fill="#595959" font-weight="700" transform="translate(731 370)"><tspan x="0" y="12" dx="0">Pons</tspan></text><rect x="315" y="276" width="132" height="46" stroke="none" fill="#D0D0D0"/><rect x="312" y="273" width="131" height="45" stroke="none" fill="#CCFFCC"/><rect x="312" y="273" width="131" height="46" stroke="#9A8484"/><text stroke="none" fill="#595959" transform="translate(341 279)"><tspan x="0" y="12" dx="0">«</tspan><tspan x="7" y="12" dx="0">O</tspan><tspan x="16" y="12" dx="0">b</tspan><tspan x="23" y="12" dx="0">j</tspan><tspan x="26" y="12" dx="0">e</tspan><tspan x="33" y="12" dx="0">c</tspan><tspan x="38" y="12" dx="0 0">tt</tspan><tspan x="47" y="12" dx="0">y</tspan><tspan x="53" y="12" dx="0">p</tspan><tspan x="59" y="12" dx="0">e</tspan><tspan x="66" y="12" dx="0">»</tspan></text><text stroke="none" fill="#595959" font-weight="700" transform="translate(351 294)"><tspan x="0" y="12" dx="0">Kaartlaag</tspan></text><rect x="475" y="432" width="132" height="46" stroke="none" fill="#D0D0D0"/><rect x="472" y="429" width="131" height="45" stroke="none" fill="#CCFFCC"/><rect x="472" y="429" width="131" height="46" stroke="#9A8484"/><text stroke="none" fill="#595959" transform="translate(501 435)"><tspan x="0" y="12" dx="0">«</tspan><tspan x="7" y="12" dx="0">O</tspan><tspan x="16" y="12" dx="0">b</tspan><tspan x="23" y="12" dx="0">j</tspan><tspan x="26" y="12" dx="0">e</tspan><tspan x="33" y="12" dx="0">c</tspan><tspan x="38" y="12" dx="0 0">tt</tspan><tspan x="47" y="12" dx="0">y</tspan><tspan x="53" y="12" dx="0">p</tspan><tspan x="59" y="12" dx="0">e</tspan><tspan x="66" y="12" dx="0">»</tspan></text><text stroke="none" fill="#595959" font-weight="700" transform="translate(492 450)"><tspan x="0" y="12" dx="0">Regelingsgebied</tspan></text><path d="M260 429 260 229" stroke="#69738C"/><path d="M514 229 514 180" stroke="#69738C"/><path d="M520 196 508 196 514 180 520 196" stroke="#69738C" fill="#FCF2E3"/><path d="M694 349 694 229" stroke="#69738C"/><path d="M496 349 496 229" stroke="#69738C"/><path d="M328 273 328 229" stroke="#69738C"/><path d="M773 277 773 229M773 229 514 229" stroke="#69738C"/><path d="M523 273 523 229" stroke="#69738C"/><path d="M473 429 473 229" stroke="#69738C"/><path d="M97 349 97 229" stroke="#69738C"/><path d="M121 273 121 229" stroke="#69738C"/><path d="M293 349 293 229" stroke="#69738C"/><path d="M69 429 69 229M69 229 514 229" stroke="#69738C"/></g></g></g></g></svg>